<?xml version="1.0" encoding="UTF-8"?>
<svg id="coralBanner1" xmlns="http://www.w3.org/2000/svg" viewBox="0 0 1226.84 1073.99">
  <defs>
    <style>
      .cls-1 {
        fill: #ffebde;
        stroke: #570060;
        stroke-miterlimit: 10;
        stroke-width: 3px;
      }

      .cls-2 {
        fill: #efd5d3;
        stroke-width: 0px;
      }
    </style>
  </defs>
  <path class="cls-1" d="M1098.74,991.42c-10.16-18.86-23.34-35.65-39.16-50.03,1.58-4.03,3.04-8.1,4.41-12.21l47.57,22.98c5.37,2.6,11.83.35,14.42-5.03s.35-11.83-5.03-14.42l-50.11-24.21c-.27-.13-.56-.2-.83-.3,4.24-17.56,6.61-35.57,7-53.63,2.9,3.56,5.77,7.14,8.55,10.81,3.59,4.76,10.36,5.71,15.13,2.11,4.76-3.59,5.71-10.37,2.11-15.13-16.25-21.53-34.62-41.09-54.8-58.62,1.14-2.37,1.46-5.14.62-7.85-4.3-13.99-8.19-27.68-8.48-41.33-.26-12.47,2.6-24.87,8.1-35.98,21.25,13.93,43.41,26.49,66.29,37.55,13,6.28,26.24,12.08,39.67,17.38,5.73,2.26,12.21-.55,14.48-6.29,2.26-5.73-.51-12.12-6.29-14.48-35.48-14-69.53-31.66-101.44-52.54,0-.01.02-.02.03-.03,3.46-3.69,3.8-9.16,1.17-13.23,51.82-15.77,102.02-44,149.44-84.18,4.55-3.85,5.12-10.67,1.26-15.22-3.85-4.56-10.67-5.12-15.22-1.26-40.46,34.28-82.9,59.41-126.54,74.99,2.47-23.32,8.99-46.51,19.1-67.58,2.66-5.55.33-12.2-5.21-14.87h-.03c-4.66-2.25-10.06-.93-13.27,2.81-20.87-11.04-42.95-5.89-64.35-.84-15.58,3.67-30.29,7.15-43.46,4.21-7.16-1.6-14.19-5.21-21.61-9.09l11.57-4.05c1.43-.5,2.87-1.01,4.31-1.51,1.07.27,2.18.42,3.34.35,3.4-.21,6.32-1.94,8.22-4.47,12.4-4.5,24.81-9.39,36.84-15.34,42.6,12.99,81,15.11,114.36,6.25,24.92-6.61,47.03-19.14,68.42-31.25,5.36-3.04,7.24-9.84,4.21-15.21-3.03-5.36-9.84-7.25-15.21-4.21-20.16,11.41-41,23.22-63.15,29.1-24.03,6.38-51.44,6.12-81.79-.66,16.54-11.83,30.61-26.08,43.13-41.73,26.65,11.86,59.26,9.53,83.53-7.06,4.64-3.17,6.09-9.22,3.67-14.12,10.6.96,21.26,1.01,31.78-.03,6.13-.61,10.61-6.07,10-12.2-.61-6.13-6.07-10.61-12.2-10-26.73,2.66-54.47-2.4-78.76-14.01,4.85-8.42,9.59-16.9,14.29-25.34,25.96-46.61,50.49-90.64,90.92-119.09,4.88-3.43,6.05-10.17,2.62-15.05-3.43-4.88-10.17-6.05-15.05-2.62-44.47,31.3-71.36,79.57-97.37,126.25-12.94,23.22-25.55,45.8-39.92,66.1-3.45.12-6.8,1.8-8.89,4.88-1.85,2.74-2.28,5.99-1.53,8.96-.7.87-1.39,1.75-2.1,2.61.02-.61.01-1.23-.07-1.86l-10.07-71.32c-.86-6.09-6.5-10.35-12.61-9.49-6.1.86-10.35,6.5-9.49,12.61l10.07,71.32c.54,3.83,2.97,6.93,6.2,8.49,1.92.93,4.13,1.32,6.4,1,.06,0,.11-.03.17-.04-6.64,7.12-13.74,13.72-21.41,19.73.09-2.2-.46-4.44-1.73-6.44-9.35-14.65-13.91-32.28-12.83-49.63.38-6.15-4.29-11.45-10.44-11.83-6.15-.39-11.45,4.29-11.83,10.44-1.37,22.04,4.41,44.42,16.28,63.03,1.16,1.81,2.74,3.17,4.54,4.04.5.24,1.04.36,1.56.53-2.26,1.4-4.54,2.77-6.87,4.07-3.15-1.05-6.33-2.15-9.53-3.33-5.79-2.13-12.2.84-14.32,6.63-1,2.72-.87,5.57.14,8.05-3.68,1.53-7.41,2.99-11.14,4.41-2.15-19.2-6.07-38.24-11.64-56.79,13.31-20.61,23.6-42.95,30.53-66.51,1.74-5.92-1.68-12.14-7.55-13.85-5.91-1.74-12.12,1.64-13.85,7.55-4.64,15.76-10.94,30.92-18.74,45.32-4.61-11.46-9.85-22.66-15.74-33.48-2.95-5.41-9.72-7.41-15.14-4.46-5.41,2.95-7.41,9.72-4.46,15.14,19.24,35.31,31.15,74.86,34.89,114.94-.71.25-1.43.5-2.14.75l-35.17,12.31c-1.11-.19-2.22-.39-3.37-.52-1.4-.16-2.77-.02-4.06.32l2.2-59.13c.22-5.96-4.42-10.97-10.39-11.19-5.96-.23-10.97,4.43-11.19,10.39l-2.62,70.44-23.84,8.34c1.24-9.53,1.61-19.17,1-28.69-.38-5.95-5.51-10.47-11.47-10.1-5.95.38-10.48,5.51-10.1,11.47.75,11.82-.23,23.85-2.79,35.49l-24.23,8.48c1.25-12.59-.43-25.38-4.8-37.21,1.17-.74,2.23-1.69,3.08-2.9,15.4-21.88,34.35-40.71,56.33-55.97,4.9-3.4,6.12-10.13,2.71-15.03-3.4-4.9-10.13-6.11-15.03-2.71-6.5,4.51-12.74,9.34-18.75,14.41l-16.95-24.22c-3.43-4.89-10.16-6.07-15.05-2.65-4.89,3.42-6.07,10.16-2.65,15.05l18.63,26.62c-8.37,8.44-16.12,17.5-23.24,27.11-1.19-1.62-2.43-3.2-3.75-4.73-1.99-2.31-4.05-4.44-6.04-6.5-3.75-3.88-7.3-7.55-9.45-11.49-5.98-10.98-2.63-25.8,1.66-41.31,1.59-5.75-1.75-11.71-7.53-13.29-5.75-1.59-11.7,1.78-13.29,7.53-5.3,19.14-9.65,39.34.19,57.4,3.55,6.52,8.51,11.65,12.89,16.17,1.77,1.84,3.56,3.67,5.22,5.59,12.81,14.84,17.75,36.65,12.61,55.57-.07.25-.08.5-.13.74l-35.11,12.29c-2.61.18-5.24.49-7.89.92,5.83-13.81,8.33-29.07,6.85-43.93-.59-5.94-5.88-10.26-11.82-9.68-5.94.59-10.27,5.89-9.68,11.82,1.85,18.63-4.48,38.1-16.95,52.07-.89,1-1.53,2.13-1.99,3.32l-123.64,43.27c-3.36,1.18-6.73,2.35-10.11,3.53-2.99-2.27-5.93-4.64-8.76-7.22-4.41-4.03-11.24-3.71-15.26.69-3.82,4.18-3.69,10.52.09,14.59-10.62,3.42-21.32,6.6-32.11,9.27,3.67-7.26,6.59-14.89,8.61-22.74,1.48-5.78-1.98-11.67-7.78-13.15-5.78-1.48-11.66,2-13.15,7.78-3.15,12.28-9.01,23.89-16.86,33.9-4.95.71-9.91,1.27-14.88,1.66-15.32-9.85-29.74-21.04-42.92-33.49,16.54-15.67,33.8-30.35,51.72-44.02,21.12,8.59,47.6,17.54,73.77,12.03,18.99-4.01,34.58-14.66,49.64-24.97,3.77-2.58,7.52-5.15,11.32-7.6,20.93-13.49,38.53-17.88,52.32-13.05,5.63,1.97,11.79-1,13.76-6.63,1.97-5.63-1-11.76-6.63-13.76-20.4-7.14-44.34-2-71.15,15.29-3.96,2.55-7.88,5.23-11.81,7.92-13.94,9.53-27.1,18.54-41.91,21.66-15.41,3.25-31.4-.09-48.48-6.11,27.85-19.49,57.16-36.63,87.75-51.26,9.45-4.52,19.26-8.91,28.75-13.16,29.69-13.29,60.4-27.03,87.38-47.77,15.88-12.21,29.88-26.39,42.92-41.32,29.18,10.67,62.5,7.2,89.44-7.79,6.65.7,13.21,2.04,19.6,3.99.03.01.05.03.08.05.93.45,1.93.72,2.95.9,7.85,2.65,15.4,6.21,22.42,10.64,5.22,3.28,12.1,1.72,15.39-3.49s1.72-12.1-3.49-15.39c-3.11-1.96-6.33-3.73-9.59-5.4,9.28-8.6,16.67-19.24,21.62-30.92,11.56-5.04,24.19-7.25,36.81-6.36,4.45.31,8.65-2.05,10.7-6.01,3.95-7.65,7.34-15,10.31-22.15,16.49-.57,33.24-1.92,49.7-6.91l36.65,22.01c.29.18.59.34.9.49,5.13,2.48,11.41.68,14.4-4.31,3.17-5.28,1.46-12.14-3.82-15.31l-23.34-14.02c13.87-8.74,24.38-20.53,30.01-34.13,2.36-5.7-.43-12.17-6.04-14.58-5.69-2.36-12.22.35-14.58,6.04-5.13,12.39-16.55,22.81-31.86,29.32-5.07-2.31-11.19-.52-14.13,4.38-.05.09-.08.19-.13.28-9.6,2.34-19.63,3.44-29.74,4.03,4.48-15.55,6.53-30.19,6.17-44.49-.16-6.16-5.28-11.03-11.43-10.88-6.16.16-11.03,5.28-10.88,11.43.36,14.17-2.15,28.98-7.62,45.18-4.71,1.4-8.11,5.77-7.99,10.91.05,2.02.67,3.88,1.65,5.49-1.52,3.5-3.15,7.06-4.93,10.7-8.19.04-16.32,1.11-24.22,3.11.46-4.8.56-9.64.16-14.47-.45-5.47-1.35-11.07-2.22-16.49-2.87-17.94-4.2-30.2,3.21-36.91,4.57-4.13,4.92-11.19.78-15.76-4.13-4.57-11.19-4.92-15.76-.78-16.94,15.33-13.24,38.43-10.27,56.98.84,5.23,1.63,10.18,2.01,14.8.68,8.26-.43,16.58-2.99,24.44-.8,1.31-1.33,2.75-1.54,4.26-4.84,12.04-13.17,22.68-23.89,29.95,1.88-2,3.7-4.06,5.41-6.23,3.83-4.83,3.02-11.85-1.81-15.67-4.82-3.8-11.84-3.02-15.67,1.81-19.87,25.07-55.87,36.32-86.89,28.71,5.93-7.35,11.71-14.76,17.44-22.11,8.01-10.27,16.06-20.6,24.08-31.03,1.69-.03,3.39-.44,4.99-1.29,10.55-5.59,23.24-7.11,34.82-4.17,5.97,1.52,12.05-2.09,13.56-8.06,1.52-5.97-2.11-12.05-8.06-13.56-7.64-1.94-15.6-2.48-23.46-1.81,17.71-23.88,34.82-48.42,50.42-73.97,1.71-.17,3.42-.69,4.96-1.69,3.73-2.42,9.46-1.45,18.44.43,5.77,1.21,11.75,2.47,18.1,2.42,16.62-.14,32.54-10.33,39.6-25.38,2.6-5.54.26-12.13-5.24-14.79l-.11-.05c-5.58-2.62-12.22-.22-14.84,5.35-3.44,7.32-11.49,12.49-19.58,12.55-3.95.03-8.51-.92-13.34-1.94-4.12-.86-8.63-1.78-13.31-2.15,5.77-10.45,11.29-21.06,16.42-31.91,5.55-11.73,10.87-23.99,16.02-35.86.46-1.06.92-2.12,1.38-3.17.55-.36,1.07-.77,1.55-1.24,2.53-.9,5.08-1.74,7.66-2.53.89.69,1.86,1.3,2.97,1.7,15.32,5.62,29.61,13.55,42.5,23.58.64.5,1.31.92,2.01,1.25,4.63,2.24,10.35,1.03,13.64-3.2,3.79-4.86,2.92-11.87-1.94-15.66-7.16-5.59-14.72-10.59-22.61-15.01,5.81-.57,11.64-.9,17.46-.91,6.16-.01,11.15-5.02,11.14-11.18-.01-6.16-5.01-11.14-11.18-11.14-17.04.03-34.19,2.28-50.8,6.5,16.81-36.25,36.46-70.3,67.61-90.87,4.98-3.29,6.35-9.99,3.06-14.96-3.29-4.98-9.99-6.35-14.96-3.06-21.2,13.99-37.33,32.75-50.76,53.81-1.18-1.25-2.64-2.27-4.37-2.85-23.46-7.86-44.56-21.81-61.01-40.32-3.96-4.45-10.79-4.86-15.25-.9-4.46,3.96-4.86,10.79-.9,15.25,14.37,16.17,31.82,29.31,51.21,38.68,6.17,2.98,12.55,5.58,19.08,7.78.25.08.51.11.76.17-6.36,11.66-12.14,23.76-17.65,36.01-12.23-13.53-22.07-29.24-28.79-46.2-2.2-5.55-8.48-8.25-14.02-6.06-5.54,2.2-8.26,8.48-6.06,14.02,7.95,20.04,19.73,38.53,34.38,54.34-2.5,3.15-3.25,7.53-1.49,11.46.59,1.32,1.41,2.45,2.38,3.4-3.21,7.38-6.49,14.73-9.83,21.98l-6.8-25.01c-1.62-5.95-7.76-9.46-13.69-7.84-5.95,1.62-9.46,7.75-7.84,13.69l13.1,48.16c.09.34.26.64.38.96-31.28,58.37-72.63,111.44-112.8,162.95-21.77,27.92-44.29,56.78-72.05,78.12-24.97,19.19-53.17,31.82-83.04,45.19-4.75,2.12-9.57,4.29-14.41,6.49,7.62-11.67,13.54-24.46,17.55-37.82,13.02-3.92,26.47-6.34,40.07-7.03,5.96-.31,10.54-5.38,10.24-11.34-.31-5.96-5.38-10.53-11.34-10.24-4.42.23-8.82.62-13.21,1.16,14.01-11.64,25.89-25.94,34.81-41.84,15.03-8.42,25.17-22.08,35.02-35.35,6.72-9.04,13.09-17.59,20.7-24.19,1.17.13,2.38.07,3.6-.21,4.13-.96,7.12-4.19,8.03-8.06,3.7-2.22,7.6-4.31,11.62-6.47,8.4-4.51,17.08-9.17,24.99-15.57,9.1-7.37,16.26-16.31,23.17-24.94,8.27-10.32,16.08-20.08,26.24-25.94,2.36-1.36,4.91-2.65,7.49-3.96,11.83-6,28.02-14.21,29.06-31.97.35-5.96-4.21-11.06-10.16-11.41-5.96-.34-11.06,4.2-11.41,10.16-.29,4.98-7.34,8.93-17.26,13.97-2.83,1.44-5.75,2.92-8.53,4.52-13.68,7.9-23.14,19.72-32.29,31.15-6.49,8.1-12.62,15.76-19.91,21.66-6.32,5.12-13.74,9.1-21.61,13.32-1.44.77-2.89,1.56-4.34,2.35-1.46-14.61-.74-29.45,2.1-43.87,7.59-6.81,19.5-9.71,32.14-12.71,18.68-4.45,39.86-9.49,49.06-29.99,2.48-5.53.09-11.99-5.32-14.61-.1-.05-.2-.09-.29-.14-5.62-2.52-12.23,0-14.75,5.61-4.38,9.77-15.71,13.1-33.86,17.42-5.79,1.38-11.88,2.84-17.86,4.79,2.06-4.83,4.34-9.56,6.92-14.13,2.93-5.2,1.08-11.79-4.11-14.71-5.21-2.9-11.78-1.09-14.71,4.11-18.78,33.36-25.62,73.28-19.37,111.03-.36.29-.74.53-1.09.82-5.71,4.7-10.64,10.06-15.22,15.64-2.07-9.09-5.59-17.84-8.93-26.07-5-12.33-9.72-23.98-9.6-35.23.09-8.55,3.11-17.07,7.08-25.24,16.7-13.97,31.66-30.32,44.18-48.28.99.05,1.99,0,2.99-.23,17.65-4.02,33.93-13.64,46.3-26.86,20.29-3.58,39.34-15.05,51.56-31.6,1.33-1.81,2.6-3.68,3.86-5.55,2.52-3.74,4.89-7.27,7.63-9.65,2.71-2.34,6.08-2.85,6.94-2.35,5.06,3.14,11.72,1.65,14.89-3.4,3.18-5.05,1.65-11.72-3.4-14.89-11.07-6.94-24.34-2.83-32.59,4.32-1.64,1.42-3.07,2.95-4.42,4.52-1.76-19.44-5.9-38.56-12.49-57.13-2-5.62-8.18-8.56-13.8-6.56-5.62,2-8.56,8.17-6.56,13.8,8.44,23.75,12.59,49.51,12.17,74.75-3.17,2.53-6.56,4.8-10.17,6.66-.9-2.41-2.59-4.53-5.02-5.87-5.34-2.94-12.18-1.01-15.16,4.39-1.58,2.86-3.44,5.55-5.42,8.15-.11,0-.23.03-.34.03-5.96.12-10.71,5.04-10.59,11.01,0,.1.04.19.05.28-3.4,2.82-7.06,5.31-10.93,7.44-.19-3.76-2.23-7.33-5.78-9.26-5.54-2.99-12.19-.94-15.13,4.48-9.81,18.07-22.36,34.88-36.84,49.68-4.46-.98-9.23.86-11.67,5.01-2.17,3.71-4.48,7.66-6.72,11.82-.51.41-.99.86-1.51,1.27-3.17,2.54-4.55,6.44-4.05,10.19-2.8,6.55-5.03,13.52-6.05,20.86-3.47-1.75-7.78-1.38-10.94,1.28l-76.49,64.5c.24-33.62,2.6-65.35,19.58-88.24,9.02-.07,18.1,3.57,24.3,10.11,3.78,3.98,10.11,4.17,14.11.37,4-3.79,4.17-10.11.37-14.11-5.84-6.16-13.27-10.73-21.33-13.46,5.4-4.1,11.23-7.94,17.24-11.89,7.03-4.62,14.17-9.33,20.88-14.66,5.82,2.29,11.96,3.78,18.14,4.29,5.95.49,11.16-3.94,11.64-9.89.48-5.95-3.94-11.16-9.89-11.64-.81-.07-1.61-.17-2.42-.29.58-.77,1.21-1.5,1.77-2.3,5.95-8.47,9.91-17.77,13.61-26.88,29.73,3.37,60.26-9.24,78.77-32.89,3.8-4.85,2.94-11.86-1.92-15.66-4.83-3.78-11.86-2.94-15.66,1.92-12.06,15.42-31.8,24.69-51.4,24.84,2.31-4.11,4.91-7.89,8.09-11.14,3.85-3.94,3.78-10.26-.17-14.11-3.96-3.86-10.26-3.77-14.11.17-2.47,2.53-4.64,5.22-6.62,8,.14-5.26.12-10.52-.06-15.79,18.36-5.26,35.21-15.52,48.76-29.13l48.88,31.82c.39.26.79.48,1.21.68,4.82,2.33,10.74.76,13.74-3.84,3.26-5,1.84-11.69-3.16-14.94l-46.85-30.5c4.03-5.91,7.54-12.16,10.37-18.7,1.99.32,4.08.16,6.07-.68,11.72-4.94,22.43-12.52,30.97-21.93,4.14-4.56,3.8-11.62-.77-15.76-4.58-4.14-11.62-3.79-15.76.77-3.91,4.31-8.47,8.02-13.39,11.16-.52-4.82-4.11-8.94-9.12-9.81-6.07-1.06-11.85,3-12.91,9.07-2.29,13.08-7.85,25.43-15.7,36.16-2.86.49-5.53,2.11-7.24,4.73-1.17,1.8-1.71,3.81-1.73,5.81-9.87,10-21.94,17.82-35.15,22.35-.92-7.42-2.15-14.79-3.72-22.09l30.7-53.11c3.08-5.34,1.26-12.16-4.08-15.24-5.34-3.02-12.16-1.26-15.24,4.08l-23.46,40.59c-1.41-.23-2.89-.19-4.35.22-5.3,1.52-8.36,7.05-6.84,12.34.6,2.09,1.08,4.2,1.61,6.31-.17,2.4.44,4.77,1.72,6.79,2.02,8.97,3.48,18.08,4.43,27.24-2.04,2.43-3.07,5.68-2.49,9.05.44,2.56,1.76,4.72,3.55,6.34.65,16.58-.37,33.23-3.22,49.54-.6,3.43.64,6.74,2.99,8.97-1.98,4.2-4.13,8.18-6.68,11.81-1.44,2.05-3.05,3.97-4.73,5.83-.19-.14-.4-.27-.59-.42-4.7-3.64-11.5-2.78-15.15,1.94-2.9,3.75-2.9,8.78-.43,12.53-4.42,3.19-9.08,6.26-13.85,9.39-11.81,7.76-23.99,15.81-33.95,26.74-4.5,1.1-7.6,5.1-7.62,9.61-2.18,3.15-4.2,6.37-5.97,9.7,4.59-11,8.8-21.83,12.77-32.13,2.22-5.75-.6-12.15-6.39-14.43-5.75-2.22-12.21.65-14.43,6.39-.95,2.46-1.92,4.97-2.9,7.49l3.19-20.48c1.39-8.94,2.97-19.06,1.75-29.44-1.2-10.25-5.03-19.67-8.41-27.99l-5.18-12.75c.92-1.39,1.58-2.97,1.8-4.74l9.28-73.33c.77-6.11-3.54-11.69-9.67-12.47-6.11-.77-11.69,3.56-12.47,9.67l-5.18,40.93-1.06-2.6c-2.32-5.72-8.83-8.45-14.54-6.13-5.71,2.32-8.45,8.83-6.13,14.54l22.48,55.29c3.12,7.68,6.07,14.94,6.92,22.2.87,7.34-.4,15.5-1.63,23.4l-13.73,88.26c-.3,1.94-.07,3.84.57,5.56-7.12,12.18-15.19,23.75-24.51,34.12-1.15-1.46-2.63-2.68-4.46-3.46-5.6-2.3-11.97.3-14.42,5.79l9.13-123.69c.45-6.14-4.16-11.49-10.31-11.95-6.15-.45-11.5,4.16-11.95,10.31l-14.13,191.45-19.43,47.2c-.16.38-.32.77-.47,1.16-12.36-13.44-23.94-27.6-32.11-43.51-2.48-4.82-4.53-9.68-6.18-14.52,18.55-41.3,37.94-82.88,57.7-123.67,2.69-5.55.37-12.22-5.17-14.91h-.01c-5.54-2.68-12.21-.37-14.89,5.17-12.67,26.15-25.17,52.63-37.42,79.15,2-5.5-.54-11.62-6.03-14.03-5.66-2.44-12.22.17-14.66,5.83-6.03,13.98-7.98,29.82-6.03,46.2-8.65-5.39-16.74-11.61-24.17-18.56.6-.93,1.11-1.93,1.42-3.06,9.06-33.04,28.54-61.42,49.16-91.48,16.51-24.06,33.57-48.93,45.02-76.63l1.22-2.99c2.42-6,4.72-11.66,8.21-15.59,2.77-3.11,7.06-4.92,9.36-3.94,5.67,2.41,12.22-.23,14.64-5.9,2.41-5.66-.17-12.16-5.9-14.64-7.18-3.05-14.55-2.51-21.04.04,5.94-47.21-3.12-95.9-26.35-137.78-2.99-5.39-9.78-7.34-15.17-4.35-5.39,2.99-7.33,9.78-4.35,15.17,12.51,22.56,20.42,47.32,23.65,72.67-5.77-3.96-11.86-7.36-17.64-10.57-14.66-8.15-27.32-15.19-29.77-27.27-1.22-6.04-7.11-9.94-13.15-8.71-6.04,1.23-9.94,7.11-8.71,13.15,4.49,22.14,23.78,32.87,40.8,42.33,12.58,6.99,24.46,13.6,29.91,23.63.05.09.11.16.16.24-.56,16.86-3.19,33.68-7.98,50.01-.8,2.73-.49,5.51.64,7.9-3.79,8.89-8.23,17.6-13.13,26.13-6.32-6.67-13.33-12.44-20.2-18.07-3.67-3.01-7.13-5.85-10.49-8.82-14.44-12.76-21.84-25.05-22-36.55-.08-6.16-5.15-11.09-11.31-11-6.16.08-11.09,5.15-11,11.31.25,18.05,10.18,35.87,29.53,52.97,3.67,3.24,7.46,6.35,11.12,9.35,8.22,6.74,16.04,13.18,22.1,20.68-5.41,8.32-11.02,16.52-16.57,24.61-3.39,4.95-6.8,9.93-10.18,14.95-14.64-17.95-25.84-38.82-32.61-60.94-1.8-5.89-8.03-9.21-13.93-7.4-5.89,1.8-9.21,8.04-7.4,13.93,8.3,27.13,22.57,52.55,41.29,73.9-10.55,17.01-19.96,34.8-26.43,54.02-2.1-2.73-4.12-5.52-6.04-8.39-3.42-5.12-10.36-6.5-15.47-3.08-5.12,3.43-6.5,10.35-3.08,15.47,17,25.43,40.41,46.17,67.7,59.99.06.03.13.06.19.09,1.6.77,3.29,1.08,4.96,1.06,1.68,4.39,3.6,8.76,5.83,13.09,11.12,21.66,26.93,39.54,43.05,56.45-5.13,14.99-8.97,31.32-8.01,48.07-9.81,12.17-19.9,25.68-29.18,40.25-.74-2.75-1.64-5.46-2.71-8.1.62-1.08,1.1-2.26,1.33-3.55l12.13-68.24c1.08-6.07-2.98-11.85-9.03-12.94-6.07-1.08-11.86,2.97-12.94,9.03l-10.05,56.57c-1.72.25-3.41.87-4.9,1.98-4.79,3.56-5.78,10.33-2.21,15.11,8.93,11.99,11.64,28.9,6.9,43.07-.78,2.32-.68,4.7.04,6.85-1.64,3.76-3.18,7.56-4.62,11.4-5.33-11.07-11.43-21.31-19.02-30.1-6.78-32.86,1.52-68.59,22.45-94.89,3.71-4.67,2.94-11.46-1.72-15.18-4.66-3.71-11.46-2.94-15.18,1.72-3.18,4-6.11,8.2-8.79,12.53-4.67-10.97-11.89-20.98-18.98-30.79-6.85-9.47-13.32-18.42-17.29-27.85-6.3-14.96-6.46-31.98-6.64-49.99-.08-8.24-.16-16.76-.87-25.22-1.56-18.88-6.81-33.51-13.84-44.55,11.16-23.5,21.79-47.44,31.61-71.41,2.33-5.7-.37-12.19-6.09-14.55-5.7-2.33-12.22.39-14.55,6.09-3.98,9.71-8.13,19.41-12.35,29.08-20.85-15.01-34.1-40.3-33.82-66.1.07-6.16-4.87-11.21-11.03-11.28-6.16-.07-11.21,4.87-11.28,11.03-.38,34.49,18.16,68.21,46.92,87.01-1.89,4.15-3.77,8.31-5.7,12.44-6.68-4.87-13.71-7.81-20.27-9.06-6.05-1.15-11.89,2.82-13.05,8.87-1.16,6.05,2.81,11.91,8.87,13.05,5.6,1.06,10.44,3.86,14.6,7.77-.21.43-.41.87-.62,1.3-2.71,5.54-.41,12.22,5.12,14.92l.05.02c2.22,1.07,4.61,1.31,6.86.89,3.47,8.15,5.6,17.36,6.34,26.3.63,7.65.71,15.39.79,23.59.19,19.38.38,39.42,8.38,58.43,4.96,11.78,12.49,22.2,19.78,32.27,11.43,15.81,21.3,29.46,19.75,44.89-.29,2.82.52,5.48,2.06,7.61-3.85,13.56-5.69,27.68-5.34,41.76-9.35-5.01-19.32-7.85-29.22-10.19,8.28-45.65-17.7-95.17-60.2-113.77-5.46-2.4-11.83.08-14.23,5.55-2.35,5.34-.02,11.55,5.18,14.06.12.06.24.12.36.17,32.74,14.41,53.54,53.66,47.76,88.98-9.59-2.58-18.34-5.89-25.21-11.77-4.1-3.51-7.65-8.07-11.42-12.9-1.04-1.34-2.08-2.67-3.14-4-10.1-12.6-21.72-23.87-34.48-33.63.17-1.72,0-3.49-.69-5.2-5.93-14.92.41-33.29,6.55-51.06l1.93-5.61c3.07-9.07,5.04-17.57,6.01-25.49l17.71-3.56c6.04-1.21,9.96-7.09,8.74-13.13-1.21-6.04-7.1-9.96-13.13-8.74l-13.69,2.75c-1.91-10.39-6.41-19.15-13.47-26.02-4.41-4.31-11.48-4.21-15.78.21-4.3,4.41-4.21,11.48.21,15.78,12.79,12.45,6.9,37.33,2.25,51.05l-1.88,5.49c-.13.38-.27.77-.4,1.15-15.84-5.45-30.78-13.49-46.48-21.96-7.67-4.14-15.6-8.41-23.63-12.35-.48-.23-.95-.46-1.42-.69-34.51-16.67-63.87-21.78-89.68-15.6-5.99,1.43-9.69,7.45-8.25,13.45.81,3.39,3.09,6.05,6,7.45,2.23,1.08,4.84,1.42,7.44.8,20.61-4.93,45.08-.36,74.77,13.99.43.21.88.42,1.32.64,1.83.9,3.68,1.88,5.52,2.82-14.08,5.14-27.09,13.36-37.47,24.01-4.3,4.41-4.21,11.48.2,15.78.89.86,1.88,1.55,2.93,2.06,4.21,2.03,9.41,1.27,12.85-2.26,12.53-12.86,29.98-21.23,47.85-22.97,1.18-.11,2.28-.46,3.31-.9,12.19,6.4,24.78,12.5,38.11,17.04-2.03,8.05-3.34,16.3-3.09,24.58-15.48-8.52-32.07-15.05-49.34-19.21-5.8-1.4-11.64,2.17-13.04,7.96-1.4,5.81,2.18,11.64,7.96,13.04,30.03,7.24,57.79,22.39,80.25,43.42-3.72.88-7.3,2.38-10.53,4.53-4.96,3.3-6.31,10.01-3.01,14.98,1.11,1.67,2.6,2.93,4.28,3.74,3.33,1.61,7.4,1.46,10.69-.73,4.34-2.89,11.2-2.31,15.01,1.25,2.03,1.9,4.6,2.84,7.18,2.89,3.23,4,6.69,7.97,10.87,11.56,14.06,12.06,31.3,15.94,47.98,19.69,11.73,2.65,22.81,5.15,32.16,10.29,5.09,2.8,9.59,6.38,13.68,10.53.21.83.38,1.67.61,2.49.87,3.11,3.01,5.51,5.71,6.81.64.31,1.31.54,1.99.71,8.58,12.13,15.04,27.18,21.12,43-.6,3.43-1.1,6.89-1.47,10.36-.6.28-1.19.6-1.75.99-14.82,10.53-36,11.14-51.38,1.59-4.29-2.66-9.68-1.93-13.15,1.4-6.11-5.99-12.49-11.71-19.1-17.13-3.6-2.96-7.29-5.84-10.98-8.72-11.29-8.82-21.97-17.16-30.09-27.57-3.63-4.64-6.79-9.76-10.14-15.18-1.66-2.68-3.35-5.41-5.13-8.13-.04-.06-.06-.13-.1-.2-.04-.06-.09-.11-.13-.17-1.91-2.9-3.92-5.8-6.12-8.61-19.32-24.74-50.81-39.43-82.19-38.33-3.62.13-6.94,2.06-8.83,5.15-1.89,3.09-2.11,6.92-.59,10.2l3.38,7.28c2.51,5.42,8.93,7.76,14.34,5.25,2.55-1.18,4.41-3.22,5.42-5.63,19.5,2.7,37.92,12.89,50.38,28.16-6.7,4.95-13.07,10.37-19.07,16.2l-57.63-27.71c-.12-.15-.2-.32-.33-.47-18.22-20.95-32.51-45.95-41.31-72.29-1.89-5.67-8-8.72-13.66-6.82-5.66,1.89-8.72,8.01-6.82,13.66,1.42,4.25,3.01,8.46,4.68,12.64-14-6.79-29.78-9.84-45.42-8.39-6.14.57-10.65,6-10.09,12.14.38,4.04,2.86,7.38,6.27,9.03,1.76.85,3.78,1.25,5.87,1.06,18.54-1.72,38.15,5.49,51.18,18.81,2.74,2.8,6.6,3.83,10.19,3.11.55.9,1.07,1.82,1.64,2.71-14.73-2.67-26.34.51-34.63,9.61-4.02,4.41-3.7,11.24.71,15.26.79.72,1.66,1.3,2.58,1.75,4.19,2.03,9.39,1.16,12.68-2.46,6.9-7.57,24.15-.9,33.82,3.75l65.05,31.28c-19.9,24.51-33.91,53.92-39.63,84.77-.91,4.89,1.64,9.63,5.91,11.69.85.41,1.76.72,2.74.9,5.86,1.09,11.5-2.78,12.59-8.65,5.43-29.26,19.29-57.05,38.96-79.62,4.35.38,8.67-1.88,10.68-6.05.94-1.95,1.22-4.05.97-6.05,4.52-4.25,9.25-8.24,14.21-11.94,3.22,5.2,6.58,10.51,10.54,15.59,9.76,12.5,21.99,22.06,33.82,31.29,3.56,2.77,7.11,5.55,10.58,8.4,16.11,13.21,30.7,28.31,43.36,44.87,5.35,7,8.64,15.62,7.81,20.52-.25,1.46-.8,2.08-1.61,2.61-2.58,1.7-4.17,4.32-4.67,7.15-4.37,1.41-8.81,2.56-13.35,3.34-5.88,1.01-9.83,6.59-8.83,12.47.61,3.58,2.92,6.44,5.96,7.91,1.95.94,4.21,1.31,6.51.92,46.95-8.03,82.21-43.56,116.32-77.93,2.43-2.45,4.83-4.83,7.25-7.25,0,0,.01.02.02.02,11.5,10.92,23.92,20.91,36.99,30,.28,3.97,2.64,7.35,6.02,8.99,1.49.72,3.17,1.11,4.94,1.07,1.39-.03,2.76-.12,4.14-.17,11.39,7.01,23.22,13.33,35.39,18.92,9.11,6.99,14.38,20.03,19.47,32.7l1.57,3.89c8.37,20.56,19.15,34.07,32.15,40.35,3.78,1.82,7.74,3.04,11.89,3.63,5.9.85,11.38-3.25,12.23-9.15.85-5.91-3.25-11.39-9.15-12.23-10.29-1.48-19.4-11.83-27.11-30.75l-1.54-3.8c-1.43-3.55-2.9-7.2-4.5-10.85,17.19,5.63,34.83,9.78,52.66,12.46-.77,2.9-.37,6.09,1.43,8.77,13.41,19.98,31.43,37.05,52.1,49.36,4.59,2.73,9.27,5.22,14.02,7.51,16.24,7.84,33.26,13.45,49.85,18.91l64.69,21.29c.57,8.75,1.82,17.45,3.77,25.98.76,3.32,2.99,5.94,5.84,7.31,2.13,1.03,4.62,1.37,7.11.8,5.81-1.33,9.45-7.13,8.11-12.94-1.04-4.53-1.77-9.13-2.36-13.75l12,3.95c5.67,1.87,11.77-1.21,13.64-6.88,1.87-5.67-1.26-11.8-6.88-13.64l-19.84-6.53c.43-13.84,2.78-27.61,7.06-40.74,28.53,21.61,54.19,50.23,74.71,84.24,1.85,3.07,3.63,6.23,5.42,9.38-2.98.15-5.88,1.47-7.89,3.97-15.77,19.61-22.61,46.11-18.3,70.9.62,3.57,2.92,6.42,5.95,7.88,1.96.95,4.23,1.31,6.54.91,5.88-1.02,9.81-6.61,8.79-12.49-3.26-18.76,1.92-38.82,13.86-53.66.14-.17.22-.36.35-.53,5.16,9.84,10.12,19.81,14.99,29.61.34.68.68,1.36,1.01,2.04-12.63,17.08-16.93,39.91-11.17,60.4.87,3.1,3.01,5.5,5.7,6.8,2.29,1.11,4.98,1.41,7.62.67,5.74-1.61,9.09-7.58,7.48-13.32-2.85-10.16-1.93-21.45,2.07-31.36,17.15,33.22,36.52,65.7,65.17,90.96.78.69,1.63,1.25,2.53,1.68,4.39,2.12,9.83,1.16,13.22-2.67,4.07-4.62,3.63-11.67-.99-15.75-10.63-9.37-19.84-19.85-28.16-31.15,1.33-1.64,2.21-3.69,2.38-5.96,3.31-42.59,17.87-83.53,42.09-118.67,9.95,3.86,20.64,6.8,31.84,7.2-4.62,19.06-11.58,37.56-20.86,54.84-4.23,7.87-8.81,11.04-10.18,10.61-.47-.15-.92-.37-1.39-.57-2.59-1.13-6.92-3.01-12.23-1.93-7.12,1.45-12.04,8.7-10.97,16.16.63,4.39,3.3,7.9,6.93,9.65,1.94.94,4.15,1.38,6.47,1.18,2.75-.23,5.17-1.46,6.93-3.31.56.12,1.13.19,1.69.27,2.16,21.98,8.69,43.73,19.11,63.18,1.12,2.09,2.83,3.66,4.82,4.62,3.01,1.45,6.64,1.5,9.81-.2,5.26-2.82,7.24-9.37,4.42-14.62-9.68-18.08-15.57-38.44-17.03-58.89-.04-.52-.15-1.01-.26-1.51,4.01-3.61,7.71-8.45,10.92-14.43,1.09-2.03,2.15-4.09,3.19-6.15,11.71,11.6,21.62,24.78,29.47,39.36,1.12,2.08,2.83,3.64,4.8,4.6,3.01,1.46,6.65,1.5,9.83-.21,5.25-2.83,7.22-9.38,4.39-14.63ZM1104.52,445.81c12.77,6.17,26.44,10.63,40.44,13.46-16.01,9.74-36.87,11.54-54.66,5.38,4.41-6.39,8.65-12.93,12.75-19.57.49.24.98.49,1.47.73ZM761.83,756.62c-2.35.42-4.36,1.58-5.89,3.18-17.67-6.96-35.81-11.64-54.07-13.75-15.85-1.84-31.75-1.84-47.13-1.84-9.52,0-19.36,0-28.89-.45-40.64-1.92-81.02-12.62-117.8-30.57,22.42-4.3,44.21-11.05,65.56-18.32,5.64,3.62,11.4,6.83,17.23,9.65,25.27,12.21,51.53,17.31,72.07,19.31,37.43,3.64,74.74-.49,110.93-4.75,7.76,4.43,15.35,9.14,22.7,14.23,4.88,3.39,11.63,2.17,15.03-2.73,3.4-4.9,2.18-11.63-2.73-15.03-8.15-5.65-16.52-10.85-25.07-15.7-1.23-1.09-2.68-1.93-4.3-2.37-30.69-16.9-63.44-29.41-95.88-41.02l72.92-25.52c24.36-.66,48.43,11.6,73.73,24.53,3.07,1.57,6.21,3.15,9.35,4.72-18.05,21.17-23.46,52.37-12.51,78.24,1.06,2.51,2.97,4.41,5.25,5.51.07.03.14.05.21.08l-70.7,12.59ZM654.01,666.81c1.02,1.42,2.37,2.63,4.03,3.43.36.17.73.33,1.11.46,26.44,9.35,53.38,18.88,79.24,30.49-24.48,2.3-49.16,3.49-73.38,1.13-18.35-1.78-41.74-6.31-64.04-16.95l53.05-18.57ZM846.96,730.02c-8.46-20.01-2.72-45.47,13.27-60.14,18.16,7.75,37.41,13.41,57.37,16.95.29.83.65,1.65,1.15,2.42,10.5,15.96,21.87,31.5,33.86,46.45-7.61-2.23-15.58-3.86-23.8-4.47-17.14-1.29-33.65,1.65-49.61,4.49l-34.57,6.16c3.03-3.02,4.11-7.67,2.34-11.86ZM986.23,749.97c1.04-3.43.37-7.29-2.16-10.2-13.61-15.68-26.45-32.25-38.37-49.36,18.3,1.4,37,1.05,55.82-.97,2.78,14.67,7.36,28.93,13.77,42.42.82,1.73,2.04,3.14,3.5,4.17-.22,2.99-.31,5.99-.24,8.99.21,9.83,1.85,19.25,4.14,28.55-6.75-4.94-13.62-9.74-20.72-14.25-4.63-2.94-9.93-6.16-15.75-9.35ZM1036.39,683.72c-.69.6-1.34,1.27-1.88,2.06-1.38,2-1.99,4.29-1.94,6.54-2.04,3.42-3.88,6.96-5.49,10.6-1.71-5.41-3.04-10.93-4.14-16.51,4.49-.79,8.97-1.7,13.45-2.69ZM831.54,604.68c1.05,1.82,2.61,3.35,4.6,4.31.36.17.73.33,1.11.46,5.62,1.99,11.79-.95,13.79-6.58.66-1.87,1.26-3.77,1.84-5.66l36.89-12.91c.77.2,1.56.34,2.39.37,3.71.14,7.04-1.61,9.09-4.39l10.38-3.63c6.48,1.82,12.96,5.19,19.72,8.73,7.48,3.91,15.19,7.93,23.82,10.42.05.09.08.18.14.27,4.75,7.21,6.19,16.85,3.76,25.14-1.56,5.31,1.02,10.85,5.84,13.18.55.27,1.13.49,1.73.67,5.92,1.73,12.11-1.66,13.84-7.57,2.79-9.53,2.68-19.76-.02-29.27,10.84-.71,21.54-3.21,32.02-5.68,19.32-4.55,35.99-8.5,49.63-.75.12.07.26.1.38.17-8.05,21.33-13,44.02-14.4,66.62-2.79.77-5.58,1.54-8.37,2.23-45.54,11.35-91.65,11.77-133.6,1.62,14.77-12.88,28.23-27.25,40.09-42.86,3.73-4.91,2.77-11.91-2.14-15.63-4.9-3.75-11.91-2.77-15.63,2.14-12.99,17.1-28.05,32.61-44.76,46.1-.99.8-1.76,1.76-2.4,2.78-5.52-1.99-10.98-4.12-16.29-6.51-8.2-3.68-16.31-7.82-24.91-12.21-13.98-7.15-28.18-14.38-42.8-19.55l34.28-12ZM666.52,305.02c1.67,11.72,6.1,22.76,10.45,33.49,5.09,12.56,9.61,23.76,9.12,34.18-.73-.39-1.51-.73-2.34-.95-5.77-1.52-11.68,1.92-13.2,7.69-2.05,7.75-4.92,15.28-8.48,22.49-3.89,2.03-6.08,6.13-5.75,10.36-8.57,13.89-19.83,26.14-32.97,35.74.1-13.44-1.79-26.9-5.95-39.85-1.83-5.69-7.91-8.81-13.59-6.99-5.68,1.83-8.81,7.91-6.99,13.59,16.5,51.42-10.61,114.75-59.21,138.3-3.22,1.56-5.28,4.51-5.88,7.78-11.67,7.01-23.12,14.39-34.35,22.15,2.27-14.92,3.9-29.95,4.94-45.02.55.14,1.12.18,1.69.23,1.02,1.35,2.35,2.46,3.91,3.21.95.46,1.98.78,3.07.95,5.31.81,10.27-2.41,11.87-7.36,2.72.17,5.42.7,7.99,1.62,5.62,2,11.8-.94,13.8-6.56,2-5.62-.97-11.83-6.56-13.8-3.24-1.15-6.59-1.93-9.99-2.4,8.58-25.4,25.25-48.24,42.71-72.13,20.43-27.96,41.56-56.86,49.88-91.46.52-2.17.35-4.34-.37-6.29l46.2-38.95ZM568.43,279.49c-8.38,23.81-9.41,51.02-9.43,79.07,0,3.04,1.37,5.74,3.51,7.57-3.97,2.88-7.91,5.28-11.68,6.66,1.78-6.57,3.28-13.26,4.32-20.14.89-5.9-3.16-11.41-9.07-12.29-5.9-.89-11.4,3.17-12.29,9.07-8.26,54.64-46.03,100.12-83.46,143.94.47-1.7.98-3.4,1.51-5.09,1.81-.47,3.53-1.36,4.96-2.76,4.04-3.91,4.45-10.1,1.25-14.53,1.42-3.59,2.88-7.13,4.3-10.59l10.57-25.68c4.88-.89,8.75-4.94,9.13-10.12l1.08-14.69,14.37-34.9c33.53-24.2,54.88-59.92,70.94-95.52ZM319.78,694.94c-1.54-2.01-3.11-4-4.7-5.97,14.22,2.97,29.41,1.51,42.7-4.33.31,4.85.85,9.73,1.69,14.63.24,1.39.8,2.63,1.49,3.77-9.34,8.23-18.95,15.77-28.95,22.03-.63-11.04-6.29-22.37-12.22-30.13ZM395.43,669.83c-5.28,5.32-10.6,10.67-15.97,15.93-.85-9.04-.79-19.54,1.25-31.75,1.05-1.94,1.51-4.18,1.23-6.45,5.83-27.07,21.48-62.04,57.44-107.47,4.24-1.35,7.24-5.1,7.68-9.48,1.29-1.55,2.54-3.09,3.87-4.67,4.1-4.85,8.25-9.71,12.42-14.59,31.11-36.38,62.97-73.73,80.37-117.37,16.86.33,31.65-12.1,41.48-20.4l6.67-5.62c-9.36,21.13-23.62,40.65-38.5,61.01-19.6,26.82-39.78,54.44-48.47,86.95-.52.17-1.02.4-1.54.59.22-7.35.31-14.7.23-22.05-.06-5.96-4.95-10.74-10.92-10.68-5.96.06-10.74,4.96-10.68,10.92.37,32.87-2.38,65.96-8.17,98.33-.19,1.04-.19,2.07-.08,3.07-1.28,1.07-2.36,2.42-3.06,4.07-.38.91-.58,1.84-.71,2.78-2.59,1.99-5.16,4.01-7.72,6.05-.07-7.12-2.38-14.39-5.72-19.66-5.88-9.28-6.22-13.29-6.18-14.32,4.55-3.65,5.39-10.27,1.84-14.95-3.6-4.74-10.38-5.69-15.13-2.08-8.01,6.07-14.29,18.44,1.22,42.92,1.88,2.97,2.52,7.14,2.34,9.42-4.87,1.14-8.45,5.57-8.33,10.77.09,3.73,2.11,6.89,5.03,8.76-9.27,8.15-18.36,16.57-27.23,25.29-4.89,4.81-9.77,9.73-14.69,14.68ZM775.32,846l-57.97-19.08c-18.56-6.11-37.67-12.44-54.72-21.75,21.08-12.61,50.36-10.53,69.23,5.29,4.56,3.82,11.38,3.24,15.22-1.33,3.84-4.57,3.24-11.38-1.33-15.22-26.99-22.65-67.89-24.93-97.24-5.42-1.89,1.26-3.25,3-4.03,4.96-10.46-7.98-19.84-17.43-27.72-27.95,2.68.2,5.37.44,8.06.57,10.05.47,20.16.47,29.93.47,15.43,0,30,0,44.57,1.68,29.5,3.41,58.72,14.28,85.93,31.32-5.5,14.87-8.83,30.59-9.93,46.46ZM928.11,942.58c-9.51-19.16-19.35-38.97-30.58-57.58-11.43-18.95-24.39-36.33-38.52-51.95,7.39-.58,14.73-1.95,21.82-4.11.44.31.88.62,1.38.87l31.86,15.92c-2.39,23.36,3.85,47.77,17.42,66.9,1.09,1.54,2.51,2.71,4.1,3.47,3.43,1.66,7.63,1.45,10.96-.92,4.87-3.45,6.01-10.19,2.56-15.06-8.98-12.65-13.84-28.28-13.96-43.86l58.14,29.05c1.21.6,2.51,1.24,3.76,1.86-11.52,17.26-20.92,35.76-28.06,55.09-5.16-1.81-9.94-4.82-13.67-8.8-4.1-4.35-10.93-4.56-15.27-.48-4.35,4.09-4.56,10.92-.48,15.27,4.67,4.97,10.31,9.07,16.47,12.05,2.04.99,4.15,1.83,6.3,2.56-2.91,10.46-5.2,21.11-6.81,31.9-9.71-16.51-18.46-34.13-27.42-52.19ZM1002.95,865.98l-68.53-34.25c-1.51-1.86-3.61-3.25-6.16-3.77-.59-.12-1.17-.16-1.75-.18l-20.74-10.36c6.25-3.99,12.07-8.64,17.24-13.99,4.15-4.29,4.02-11.13-.26-15.27-4.28-4.14-11.12-4.03-15.27.26-18.04,18.67-45.94,27.15-71.34,21.79-15.7-14.1-32.46-26.19-49.92-35.99l96.78-17.23c14.64-2.6,29.79-5.3,44.21-4.22,18.99,1.42,38.48,9.08,63.19,24.77,28.52,18.13,54.11,39.98,76.44,65.07-.13,0-.25-.04-.38-.04-5.96-.1-10.88,4.65-10.99,10.61-.17,9.58-.98,19.14-2.34,28.62-17.23.59-34.72-8.1-50.16-15.82Z"/>
  <path class="cls-2" d="M418.21,7.5c2.24,0,4.31,1.22,5.39,3.17,22.45,40.49,31.59,88.34,25.76,134.74l-1.05,8.36,7.84-3.08c3.01-1.18,6.04-1.78,8.99-1.78s5.63.57,8.23,1.67c3.19,1.38,4.63,4.93,3.29,8.09-.97,2.28-3.2,3.75-5.68,3.75-.82,0-1.63-.17-2.4-.49-1.04-.44-2.19-.67-3.42-.67-3.89,0-8.45,2.31-11.63,5.88-4.07,4.58-6.51,10.63-9.1,17.02l-1.21,2.97c-11.25,27.23-28.16,51.88-44.54,75.74-20.86,30.4-40.55,59.12-49.84,92.95-.14.51-.39,1.04-.8,1.67l-2.26,3.51,3.05,2.85c7.67,7.18,16.06,13.62,24.94,19.16l8.84,5.51-1.23-10.34c-1.87-15.64.09-30.72,5.65-43.63.97-2.26,3.2-3.72,5.66-3.72.84,0,1.65.17,2.41.49,3.02,1.32,4.46,4.65,3.33,7.74l9.24,3.8c12.71-27.51,25.28-54.11,37.38-79.07,1.04-2.14,3.16-3.47,5.55-3.47.93,0,1.83.21,2.68.62,1.48.72,2.59,1.97,3.13,3.52.54,1.55.44,3.23-.28,4.71-19.63,40.5-39.06,82.15-57.77,123.8l-.81,1.8.64,1.87c1.77,5.17,3.94,10.28,6.47,15.19,9.13,17.77,22.37,33.18,32.88,44.61l5.32,5.78,2.99-7.26.24-.59.23-.56,19.43-47.2.3-.74.06-.8,14.13-191.45c.24-3.2,2.93-5.7,6.13-5.7.15,0,.31,0,.46.02,3.39.25,5.94,3.21,5.69,6.59l-9.13,123.69-2.11,28.55,11.66-26.15c.99-2.23,3.2-3.67,5.63-3.67.79,0,1.56.15,2.3.45.93.4,1.76,1.05,2.46,1.94l3.67,4.67,3.97-4.42c9.01-10.02,17.23-21.45,25.11-34.94l1.19-2.04-.82-2.22c-.37-1-.48-2.03-.32-3.06l13.73-88.26c1.28-8.22,2.61-16.72,1.66-24.75-.93-7.94-4-15.5-7.25-23.5l-22.48-55.29c-1.28-3.15.24-6.74,3.38-8.02.75-.3,1.53-.46,2.32-.46,2.52,0,4.75,1.51,5.7,3.84l1.06,2.6,7.19,17.7,2.4-18.95,5.18-40.92c.39-3.07,3.01-5.39,6.1-5.39.26,0,.52.02.78.05,3.37.43,5.77,3.52,5.34,6.88l-9.28,73.33c-.11.89-.45,1.76-1.01,2.6l-1.46,2.2.99,2.45,5.18,12.75c3.26,8.02,6.95,17.11,8.07,26.7,1.14,9.69-.38,19.46-1.72,28.08l-3.19,20.48-7.1,45.63,16.7-43.05c.98-2.52,1.95-5.04,2.9-7.5.91-2.36,3.22-3.95,5.75-3.95.75,0,1.5.14,2.19.4,3.23,1.27,4.79,4.77,3.56,7.97-4.14,10.74-8.24,21.26-12.72,32l9.03,4.27c1.56-2.95,3.41-5.95,5.66-9.19l.89-1.28v-1.55c.02-2.27,1.58-4.23,3.81-4.77l1.48-.36,1.03-1.13c9.66-10.59,21.53-18.39,33-25.93,5.09-3.34,9.65-6.36,14.03-9.52l3.89-2.81-2.65-4.01c-1.37-2.08-1.29-4.78.21-6.72,1.11-1.43,2.78-2.25,4.6-2.25,1.29,0,2.51.42,3.53,1.21.17.13.35.26.54.39l.13.09,3.65,2.72,3.05-3.38c2.1-2.33,3.73-4.34,5.11-6.31,2.49-3.55,4.75-7.54,7.11-12.56l1.54-3.28-2.63-2.49c-1.23-1.16-1.79-2.83-1.5-4.47,2.85-16.35,3.96-33.37,3.29-50.59l-.08-2.11-1.57-1.41c-.74-.67-1.69-1.81-1.97-3.47-.31-1.78.19-3.55,1.39-4.98l1.36-1.62-.22-2.11c-.99-9.49-2.51-18.85-4.53-27.82l-.19-.85-.47-.74c-.72-1.13-1.05-2.43-.96-3.75l.06-.81-.2-.79c-.18-.7-.35-1.39-.52-2.09-.35-1.42-.71-2.88-1.13-4.35-.37-1.28-.21-2.62.43-3.79.64-1.16,1.7-2.01,2.98-2.37.4-.12.83-.17,1.27-.17.29,0,.59.03.9.08l3.41.56,1.73-2.99,23.45-40.58c1.11-1.91,3.1-3.05,5.34-3.05,1.08,0,2.16.28,3.07.8,2.94,1.7,3.95,5.48,2.25,8.41l-30.7,53.11-.96,1.67.4,1.88c1.5,7.01,2.73,14.3,3.64,21.66l.76,6.11,5.83-2c13.69-4.7,26.52-12.85,37.09-23.57l1.43-1.45v-2.03c.02-1.14.33-2.19.93-3.12.88-1.35,2.26-2.25,3.9-2.53l1.99-.34,1.19-1.63c8.51-11.63,14.25-24.85,16.59-38.25.52-2.95,3.06-5.1,6.05-5.1.36,0,.72.03,1.08.1,2.7.47,4.71,2.64,5,5.41l.86,8.02,6.8-4.34c5.53-3.52,10.37-7.57,14.41-12.01,1.18-1.3,2.8-2.02,4.56-2.02,1.53,0,3,.57,4.14,1.6,2.51,2.28,2.7,6.18.42,8.7-8.05,8.88-18.15,16.03-29.21,20.69-.69.29-1.45.44-2.24.44-.36,0-.73-.03-1.1-.09l-3.84-.61-1.54,3.57c-2.62,6.05-5.95,12.07-9.91,17.87l-2.88,4.22,4.28,2.79,46.85,30.5c2.68,1.74,3.44,5.35,1.7,8.03-1.08,1.65-2.9,2.64-4.87,2.64-.87,0-1.71-.19-2.5-.57-.22-.11-.43-.23-.65-.37l-48.88-31.82-3.4-2.22-2.87,2.88c-13.22,13.27-29.33,22.9-46.59,27.85l-3.76,1.08.14,3.9c.18,5.03.2,10.24.06,15.48l-.43,16.43,9.51-13.41c1.98-2.8,3.98-5.22,6.11-7.4.95-.97,2.21-1.5,3.56-1.5,1.31,0,2.54.5,3.48,1.42.95.93,1.49,2.17,1.5,3.5.02,1.33-.49,2.58-1.42,3.54-3.2,3.28-6.1,7.26-8.87,12.18l-4.23,7.52,8.62-.06c21.33-.16,42.52-10.41,55.31-26.76,1.17-1.5,2.95-2.36,4.86-2.36,1.38,0,2.69.45,3.78,1.3,1.3,1.01,2.12,2.47,2.32,4.1.2,1.63-.25,3.24-1.26,4.54-15.43,19.73-39.82,31.51-65.25,31.51-3.01,0-6.04-.17-9.01-.51l-3.77-.43-1.43,3.51c-3.7,9.11-7.49,17.94-13.07,25.89-.27.38-.59.78-.93,1.21-.25.31-.49.62-.73.94l-5.15,6.77,8.42,1.2c.8.11,1.73.24,2.72.32,1.54.12,2.95.84,3.95,2.02,1,1.18,1.49,2.68,1.36,4.23-.24,2.99-2.78,5.33-5.77,5.33-.16,0-.32,0-.49-.02-5.58-.45-11.21-1.78-16.72-3.96l-2.68-1.06-2.26,1.8c-6.67,5.3-14.02,10.13-20.52,14.4-5.85,3.84-11.9,7.82-17.51,12.08l-7.5,5.69,8.92,3.02c7.49,2.54,14.16,6.75,19.3,12.17,1.89,1.99,1.81,5.15-.18,7.04-.93.88-2.14,1.36-3.42,1.36-1.39,0-2.67-.55-3.62-1.55-6.93-7.31-17.28-11.67-27.69-11.67h-.27s-2.5.02-2.5.02l-1.49,2.01c-18.56,25.02-20.35,60.18-20.57,91.19l-.08,10.86,8.3-7,76.49-64.49c1.15-.97,2.38-1.17,3.21-1.17.78,0,1.56.19,2.26.54l6.24,3.15.97-6.92c.87-6.24,2.74-12.65,5.7-19.6l.54-1.26-.18-1.36c-.29-2.18.54-4.28,2.22-5.63.32-.26.64-.53.95-.79.2-.17.39-.34.59-.5l.78-.63.47-.88c2.24-4.17,4.57-8.15,6.62-11.65,1.03-1.75,2.89-2.8,4.98-2.8.44,0,.87.05,1.3.14l2.71.59,1.94-1.98c15.03-15.36,27.7-32.45,37.66-50.79,1.1-2.03,3.11-3.24,5.36-3.24,1.04,0,2.05.26,2.99.77,1.88,1.02,3.07,2.93,3.18,5.12l.4,7.99,7.01-3.86c4.12-2.27,8.06-4.95,11.71-7.97l1.92-1.59-.11-2.49c0-.16-.02-.32-.04-.45.05-1.44.61-2.79,1.62-3.83,1.08-1.12,2.52-1.75,4.07-1.78.17,0,.34-.01.52-.03l2.25-.06,1.45-1.9c2.44-3.2,4.29-5.99,5.82-8.76,1.08-1.96,3.16-3.18,5.43-3.18,1.03,0,2.04.26,2.93.75,1.6.88,2.37,2.25,2.75,3.25l1.97,5.27,5-2.58c3.73-1.93,7.44-4.35,11-7.2l1.84-1.47.04-2.35c.43-25.9-3.88-52.36-12.45-76.5-1.07-3.02.51-6.34,3.52-7.41.63-.22,1.28-.34,1.94-.34,2.45,0,4.65,1.55,5.48,3.86,6.38,17.96,10.49,36.77,12.22,55.91l1.06,11.7,7.7-8.88c1.48-1.7,2.69-2.94,3.92-4.01,4.82-4.18,11.09-6.67,16.79-6.67,3.57,0,6.89.95,9.86,2.81,2.71,1.7,3.53,5.29,1.83,8-1.06,1.69-2.9,2.7-4.92,2.7-1.09,0-2.17-.31-3.1-.89l-.07-.04-.07-.04c-.97-.56-2.13-.84-3.44-.84-2.39,0-6.09.98-9.28,3.75-3.24,2.81-5.79,6.6-8.51,10.63-1.13,1.68-2.42,3.59-3.73,5.37-11.39,15.42-29.03,26.23-48.41,29.64l-1.64.29-1.14,1.22c-11.83,12.65-27.37,21.67-43.76,25.4-.36.08-.76.12-1.22.12-.14,0-.29,0-.43-.01l-2.76-.13-1.58,2.26c-12.3,17.65-26.86,33.56-43.28,47.3l-.82.69-.47.96c-5.09,10.46-7.5,19.16-7.58,27.37-.13,12.25,4.77,24.34,9.96,37.16,3.13,7.73,6.68,16.49,8.69,25.3l2.26,9.96,6.48-7.9c5.14-6.27,9.76-11.02,14.53-14.95.11-.09.23-.17.34-.25.23-.17.46-.34.69-.51l2.3-1.83-.48-2.9c-3.02-18.28-2.93-36.95.29-55.49,3.23-18.62,9.46-36.2,18.5-52.28,1.02-1.82,2.96-2.95,5.06-2.94.99,0,1.98.26,2.84.74,1.35.76,2.32,2,2.74,3.49.42,1.49.23,3.06-.53,4.41-2.54,4.51-4.95,9.43-7.16,14.62l-4.32,10.14,10.47-3.42c5.94-1.94,12.06-3.4,17.46-4.68,19.06-4.54,31.96-8.4,37.27-20.24.99-2.21,3.2-3.64,5.63-3.64.87,0,1.71.18,2.54.55l.14.07c3.02,1.46,4.31,5,2.93,8.06-8.19,18.25-27.23,22.79-45.65,27.17-12.63,3-25.68,6.11-34.32,13.85l-1.24,1.12-.32,1.64c-2.95,14.98-3.68,30.23-2.17,45.33l.75,7.49,6.62-3.6.7-.38c1.21-.66,2.41-1.31,3.61-1.96,8.07-4.33,15.7-8.42,22.39-13.84,7.72-6.25,14.01-14.1,20.67-22.42,8.86-11.07,18.02-22.51,30.89-29.94,2.68-1.55,5.53-2.99,8.29-4.39,10.03-5.09,19.51-9.9,19.99-18.13.18-3.07,2.72-5.47,5.79-5.47.11,0,.23,0,.34,0,3.2.19,5.65,2.94,5.46,6.13-.87,14.9-14.99,22.06-26.33,27.81l-.28.14c-2.49,1.26-5.06,2.57-7.45,3.95-10.98,6.35-19.07,16.45-27.64,27.15l-.04.05c-6.74,8.41-13.71,17.12-22.38,24.13-7.53,6.09-15.99,10.64-24.21,15.05-3.94,2.11-8.01,4.3-11.82,6.58l-1.81,1.08-.49,2.05c-.52,2.18-2.16,3.84-4.3,4.34-.42.1-.85.15-1.28.15-.21,0-.43-.01-.64-.03l-2.17-.23-1.65,1.43c-8.11,7.04-14.88,16.17-21.44,24.99-9.51,12.81-19.34,26.06-33.45,33.96l-1.23.69-.69,1.23c-8.57,15.3-20.21,29.28-33.64,40.44l-13.07,10.86,16.87-2.05c4.43-.54,8.76-.92,12.85-1.13.1,0,.2,0,.3,0,3.09,0,5.64,2.42,5.8,5.51.16,3.19-2.31,5.93-5.5,6.09-13.74.7-27.62,3.14-41.25,7.24l-2.57.77-.77,2.57c-3.9,12.97-9.6,25.25-16.95,36.52l-9.4,14.41,15.66-7.12c4.81-2.19,9.66-4.36,14.38-6.47,30.14-13.49,58.6-26.22,84.05-45.79,28.26-21.72,50.96-50.83,72.94-79.01,40.19-51.54,81.75-104.85,113.26-163.66l1.07-2-.79-2.12c-.08-.21-.16-.41-.25-.61l-.02-.05-13.06-48.01c-.89-3.27,1.05-6.66,4.33-7.56.53-.14,1.08-.22,1.62-.22,2.77,0,5.21,1.87,5.94,4.55l6.8,25.01,3.61,13.28,5.75-12.5c3.19-6.94,6.42-14.16,9.87-22.07l1.37-3.15-2.46-2.41c-.57-.56-1.01-1.19-1.32-1.87-.93-2.07-.6-4.49.84-6.31l2.66-3.36-2.92-3.14c-14.46-15.6-25.7-33.36-33.4-52.78-1.18-2.97.28-6.36,3.25-7.53.69-.27,1.41-.41,2.14-.41,2.4,0,4.51,1.44,5.4,3.67,6.95,17.52,16.95,33.57,29.73,47.71l5.13,5.67,3.14-6.97c6.35-14.1,11.9-25.43,17.48-35.67l3.07-5.64-6.22-1.6c-.2-.05-.39-.09-.59-.13-6.24-2.11-12.41-4.62-18.32-7.48-18.97-9.16-35.67-21.78-49.64-37.5-2.13-2.39-1.91-6.07.48-8.19,1.06-.94,2.43-1.46,3.85-1.46,1.66,0,3.24.71,4.34,1.95,17.04,19.17,38.88,33.6,63.16,41.74.84.28,1.62.8,2.32,1.54l4.4,4.68,3.45-5.42c14.65-22.98,30.77-40.1,49.3-52.33.95-.63,2.05-.96,3.18-.96,1.96,0,3.77.97,4.85,2.61.85,1.29,1.15,2.84.84,4.36-.31,1.52-1.19,2.82-2.49,3.68-33.4,22.06-53.82,59.36-69.39,92.94l-4.42,9.53,10.19-2.58c16.47-4.18,33.15-6.31,49.57-6.34,3.4,0,6.18,2.76,6.18,6.15,0,1.64-.63,3.19-1.79,4.35-1.16,1.17-2.71,1.81-4.35,1.81-5.66.01-11.69.32-17.93.93l-15.86,1.55,13.9,7.79c7.69,4.31,15.09,9.22,21.98,14.59,2.68,2.09,3.16,5.96,1.07,8.64-1.18,1.51-2.95,2.38-4.87,2.38-.92,0-1.84-.21-2.66-.61-.39-.19-.76-.42-1.11-.7-13.29-10.35-28.04-18.54-43.85-24.34-.5-.18-1.01-.49-1.61-.95l-2.05-1.6-2.49.76c-2.53.77-5.18,1.65-7.86,2.6l-1.01.36-.78.74c-.27.26-.55.48-.83.66l-1.26.82-.6,1.38-.63,1.44-.75,1.73c-5.11,11.78-10.39,23.96-15.95,35.71-4.79,10.13-10.11,20.47-16.28,31.63l-3.75,6.8,7.74.6c4.21.33,8.23,1.13,12.67,2.06,5.01,1.05,9.74,2.05,14.16,2.05h.25c9.94-.08,19.84-6.42,24.07-15.43,1.01-2.15,3.2-3.54,5.58-3.54.9,0,1.78.2,2.58.57l.1.05c3.02,1.46,4.32,5.12,2.89,8.16-6.26,13.34-20.38,22.38-35.12,22.5h-.32c-5.71,0-11.3-1.17-16.71-2.31-5.16-1.08-9.75-1.98-13.58-1.98-3.46,0-6.28.73-8.6,2.24-.77.5-1.69.8-2.74.91l-2.48.24-1.3,2.13c-13.99,22.91-29.93,46.3-50.17,73.6l-6.6,8.9,11.04-.94c1.99-.17,4-.26,5.97-.25,5.46,0,10.79.65,15.83,1.93,1.59.4,2.93,1.41,3.77,2.82.84,1.42,1.08,3.07.68,4.66-.69,2.73-3.14,4.64-5.96,4.64-.51,0-1.02-.06-1.53-.19-4.24-1.08-8.65-1.62-13.11-1.62-8.86,0-17.61,2.15-25.29,6.22-.84.45-1.77.68-2.75.7l-2.4.05-1.46,1.9c-7.91,10.28-15.89,20.53-24.06,31-5.32,6.83-11.36,14.56-17.39,22.04l-4.94,6.12,7.64,1.87c6.74,1.65,13.79,2.49,20.96,2.49,13.42,0,27.01-2.95,39.28-8.52,12.67-5.76,23.65-14.2,31.75-24.42,1.17-1.48,2.93-2.32,4.83-2.32,1.4,0,2.73.46,3.82,1.32,1.29,1.02,2.1,2.49,2.29,4.12.19,1.63-.27,3.24-1.29,4.53-1.51,1.9-3.19,3.84-5.14,5.91l-17.19,18.27c-1.24-.17-2.48-.33-3.72-.46l-1.57-.17-1.38.77c-15.69,8.73-33.49,13.35-51.47,13.35-11.77,0-23.15-1.98-33.82-5.88l-3.22-1.18-2.26,2.58c-14.89,17.04-28.3,29.95-42.21,40.64-26.51,20.38-56.93,33.99-86.38,47.17-9.51,4.26-19.33,8.66-28.86,13.21-30.64,14.66-60.41,32.04-88.46,51.68l-7.97,5.58,9.17,3.23c14.83,5.23,26.78,7.66,37.62,7.66,4.66,0,9.23-.46,13.56-1.38,15.77-3.33,29.32-12.6,43.7-22.43,3.8-2.6,7.73-5.29,11.7-7.85,18.13-11.68,34.86-17.61,49.75-17.61,5.94,0,11.67.95,17.02,2.83,3.03,1.08,4.64,4.4,3.58,7.4-.81,2.33-3.01,3.89-5.48,3.89-.65,0-1.29-.11-1.91-.33-4.13-1.45-8.6-2.18-13.28-2.18-12.59,0-27.19,5.3-43.4,15.75-3.77,2.43-7.55,5.01-11.19,7.51l-.24.16c-14.66,10.03-29.82,20.4-47.85,24.2-5.01,1.06-10.31,1.59-15.76,1.59-19.6,0-38.85-6.75-55.09-13.36l-2.65-1.08-2.27,1.73c-18.02,13.75-35.56,28.68-52.12,44.36l-3.84,3.64,3.84,3.63c13.23,12.49,27.91,23.95,43.65,34.06l1.42.91,1.68-.13c5.01-.39,10.12-.97,15.21-1.7l1.98-.29,1.24-1.58c8.35-10.66,14.5-23.02,17.76-35.74.66-2.57,2.97-4.36,5.61-4.36.48,0,.97.06,1.46.19,1.5.38,2.75,1.32,3.54,2.65.79,1.34,1.02,2.9.63,4.41-1.89,7.34-4.66,14.65-8.23,21.73l-4.92,9.73,10.58-2.63c9.86-2.45,20.47-5.51,32.44-9.37l7.47-2.41-5.33-5.75c-2.07-2.23-2.1-5.6-.07-7.82,1.11-1.22,2.64-1.89,4.29-1.89,1.45,0,2.84.54,3.91,1.52,2.67,2.44,5.56,4.83,9.12,7.52l2.13,1.62,2.53-.88c3.38-1.17,6.75-2.35,10.12-3.53l123.64-43.27,2.18-.76.83-2.16c.27-.71.62-1.3,1.05-1.78,13.38-15,20.18-35.89,18.19-55.89-.32-3.18,2.02-6.03,5.19-6.35.19-.02.39-.03.58-.03,3,0,5.48,2.25,5.77,5.23,1.38,13.83-.87,28.18-6.48,41.49l-3.51,8.31,8.91-1.43c2.53-.41,5.04-.7,7.45-.87l.67-.05.63-.22,35.11-12.29,2.7-.94.56-2.8c.04-.18.06-.36.09-.54h0c5.51-20.44.14-43.98-13.68-60.01-1.65-1.92-3.4-3.73-5.1-5.48l-.31-.32c-4.15-4.29-8.86-9.15-12.09-15.09-8.94-16.42-4.78-35.52.24-53.67.69-2.51,2.99-4.26,5.58-4.26.52,0,1.04.07,1.57.22,1.49.41,2.72,1.37,3.48,2.7.77,1.35.96,2.92.54,4.43-4.57,16.53-8.11,32.41-1.24,45.03,2.47,4.53,6.24,8.43,10.24,12.57l.06.06c1.92,1.99,3.91,4.05,5.8,6.23,1.1,1.27,2.24,2.72,3.51,4.43l4.01,5.44,4.03-5.43c7.02-9.47,14.68-18.41,22.78-26.56l2.94-2.97-2.4-3.42-18.63-26.61c-1.83-2.62-1.2-6.25,1.42-8.08.98-.69,2.13-1.05,3.32-1.05,1.9,0,3.68.93,4.76,2.47l16.95,24.22,3.14,4.49,4.18-3.53c6.04-5.1,12.22-9.85,18.37-14.12.98-.68,2.12-1.04,3.3-1.04,1.91,0,3.69.93,4.77,2.49.88,1.27,1.22,2.81.94,4.34-.28,1.53-1.13,2.85-2.4,3.74-22.46,15.59-41.83,34.84-57.57,57.2-.42.6-.98,1.12-1.66,1.54l-3.43,2.16,1.4,3.8c4.12,11.16,5.68,23.26,4.52,34.99l-.77,7.8,7.4-2.59,24.23-8.48,2.63-.92.6-2.73c2.69-12.28,3.67-24.69,2.89-36.88-.1-1.55.41-3.04,1.44-4.2,1.02-1.16,2.44-1.86,3.98-1.96.13,0,.25-.01.38-.01,3.05,0,5.59,2.39,5.79,5.44.57,9.06.25,18.38-.97,27.72l-1.05,8.05,7.66-2.68,23.84-8.34,3.22-1.13.13-3.41,2.62-70.44c.12-3.13,2.66-5.59,5.78-5.59.07,0,.15,0,.23,0,1.55.06,2.98.71,4.04,1.85,1.05,1.14,1.6,2.61,1.54,4.16l-2.2,59.13-.25,6.72,6.51-1.7c.56-.15,1.1-.22,1.62-.22.21,0,.41.01.61.03.92.1,1.85.27,2.84.44l.23.04,1.28.22,1.23-.43,35.17-12.31,1.18-.41.96-.34,3.69-1.29-.36-3.89c-3.81-40.85-16.08-81.27-35.47-116.87-1.62-2.98-.52-6.73,2.46-8.35.92-.5,1.91-.75,2.94-.75,2.26,0,4.34,1.23,5.42,3.21,5.7,10.47,10.92,21.55,15.49,32.95l3.97,9.87,5.07-9.35c8.02-14.8,14.46-30.37,19.14-46.29.77-2.6,3.19-4.42,5.9-4.42.59,0,1.17.09,1.75.26,1.56.46,2.86,1.5,3.65,2.95.79,1.45.97,3.12.51,4.69-6.76,22.98-16.83,44.92-29.93,65.21l-1.25,1.94.66,2.21c5.51,18.33,9.36,37.14,11.46,55.91l.72,6.41,6.03-2.29c4.35-1.65,7.94-3.07,11.29-4.47l4.58-1.91-1.87-4.6c-.58-1.42-.61-3-.08-4.45.89-2.41,3.21-4.04,5.78-4.04.72,0,1.43.13,2.12.38,2.99,1.1,6.16,2.2,9.67,3.38l2.09.7,1.92-1.07c2.17-1.21,4.48-2.58,7.07-4.19l6.38-3.96v.19s1.12-.89,1.12-.89l1.78-1.1-.26-.08,5.87-4.6c7.61-5.96,15-12.77,21.98-20.26l.37-.4-.02.69,4.68-5.69,4.86-5.21-.66.1.36-.44c.53-.64,1.05-1.29,1.57-1.95l.57-.72,1.55-1.94-.61-2.41c-.44-1.75-.15-3.5.83-4.94,1.11-1.64,2.9-2.62,4.91-2.69l2.48-.08,1.43-2.03c14.69-20.75,27.66-44.03,40.2-66.55,25.73-46.19,52.33-93.95,95.87-124.59.98-.69,2.14-1.06,3.33-1.06,1.89,0,3.67.92,4.75,2.46.89,1.27,1.24,2.8.97,4.33-.27,1.53-1.11,2.86-2.38,3.75-41.37,29.11-66.16,73.62-92.41,120.75-4.8,8.62-9.5,17.03-14.25,25.28l-2.69,4.68,4.87,2.33c20.79,9.94,43.91,15.19,66.86,15.19,4.87,0,9.77-.24,14.56-.72.21-.02.42-.03.63-.03,3.17,0,5.79,2.38,6.1,5.55.16,1.64-.32,3.24-1.36,4.51-1.04,1.27-2.52,2.06-4.15,2.22-4.96.49-10.1.74-15.28.74s-10.31-.24-15.56-.71l-8.87-.8v.03s-9.35-1.89-9.35-1.89c-13.94-2.81-27.14-7.21-39.26-13.06-.28-.14-.57-.28-.85-.42l-.58-.29-4.08-2.02-2.39,3.87c-4.28,6.94-8.41,13.27-12.62,19.36l-3.74,5.41,6.22,2.15c7.38,2.56,15.19,3.85,23.22,3.85,12.93,0,25.27-3.35,35.68-9.69l8.73-5.31,2.95,5.99c1.35,2.73.48,6.08-2.01,7.78-12.85,8.78-28.92,13.61-45.26,13.61-11.58,0-23.13-2.42-33.42-7l-3.53-1.57-2.41,3.01c-13.39,16.74-27.17,30.08-42.13,40.79l-9.1,6.51,10.92,2.44c16.02,3.58,31.42,5.39,45.79,5.39,13.52,0,26.43-1.61,38.37-4.78,22.77-6.04,43.9-18.01,64.33-29.58.94-.53,1.96-.8,3.02-.8,2.22,0,4.28,1.2,5.37,3.12.81,1.43,1.02,3.09.58,4.68-.44,1.58-1.47,2.9-2.9,3.71-21.11,11.96-42.94,24.32-67.24,30.77-13,3.45-26.99,5.2-41.59,5.2-21.66,0-45.22-3.84-70.03-11.4l-1.9-.58-1.78.88c-10.18,5.04-21.38,9.7-36.32,15.12l-1.4.51-.89,1.19c-1.12,1.49-2.73,2.38-4.51,2.48-.08,0-.17,0-.25,0-.46,0-.98-.07-1.59-.22l-1.45-.36-1.41.49-1.75.62-2.55.9-11.57,4.05-10.89,3.81,10.22,5.34c6.95,3.63,14.84,7.75,22.83,9.54,3.68.82,7.53,1.22,11.77,1.22,10.84,0,22.03-2.64,33.92-5.44,11.64-2.75,23.68-5.59,35.31-5.59,9.6,0,17.95,1.96,25.55,5.98l3.53,1.87,2.6-3.04c1.18-1.38,2.89-2.17,4.69-2.17.9,0,1.78.2,2.63.61,3.05,1.47,4.34,5.15,2.87,8.21-10.28,21.41-17.04,45.35-19.57,69.22l-.84,7.91,7.49-2.67c44.18-15.78,87.28-41.31,128.09-75.88,1.34-1.14,2.78-1.38,3.75-1.38,1.71,0,3.32.75,4.43,2.06,1,1.18,1.48,2.68,1.35,4.23-.13,1.54-.85,2.95-2.03,3.95-46.78,39.64-96.46,67.63-147.66,83.21l-6.34,1.93,3.59,5.57c1.45,2.25,1.2,5.16-.62,7.1l-.11.12-4.02,4.23,5.02,3.28c32.25,21.1,66.67,38.93,102.31,53,3.21,1.33,4.75,4.84,3.5,8-.94,2.37-3.19,3.9-5.74,3.9-.77,0-1.53-.15-2.25-.43-13.28-5.24-26.51-11.04-39.33-17.23-22.57-10.9-44.68-23.43-65.73-37.23l-4.72-3.09-2.51,5.05c-5.92,11.94-8.9,25.18-8.62,38.3.3,14.3,4.29,28.35,8.7,42.7.42,1.37.3,2.87-.35,4.21l-1.66,3.44,2.88,2.51c20.08,17.45,38.28,36.92,54.09,57.86,1.93,2.55,1.42,6.2-1.14,8.13-1.01.77-2.22,1.17-3.48,1.17-1.84,0-3.53-.84-4.64-2.31-3.03-4.01-6.08-7.79-8.66-10.96l-2.61-3.2h.22s-2.52-2.82-2.52-2.82l-3.67-4.5v.37s-1.75-1.96-1.75-1.96c-22.7-25.51-48.77-47.71-77.49-65.97-25.45-16.17-45.65-24.05-65.49-25.54-2.3-.17-4.7-.26-7.16-.26-12.78,0-25.75,2.31-38.31,4.54l-96.78,17.23-13.74,2.45,12.17,6.84c17.13,9.62,33.63,21.51,49.03,35.35l1,.9,1.31.28c5.32,1.12,10.84,1.7,16.4,1.7,22.57,0,44.28-9.08,59.57-24.9,1.1-1.14,2.59-1.77,4.18-1.77,1.51,0,2.94.58,4.03,1.63,1.11,1.08,1.74,2.52,1.77,4.07.03,1.55-.55,3.02-1.63,4.13-4.72,4.88-10.21,9.34-16.33,13.25l-7.43,4.75,7.89,3.94,20.74,10.36.96.48,1.07.04c.33.01.7.03.97.09,1.6.32,2.66,1.28,3.27,2.02l.68.83.96.48,68.53,34.24c15.35,7.67,32.74,16.37,50.72,16.37.61,0,1.23-.01,1.84-.03l4.18-.14.6-4.14c1.42-9.87,2.23-19.71,2.39-29.24.05-3.1,2.59-5.63,5.68-5.7.12.02.27.03.44.04l5.59.29-.14,6.57c-.38,17.57-2.69,35.26-6.86,52.57l-1.03,4.26,4.09,1.58c.19.07.38.14.57.2h.02s49.97,24.15,49.97,24.15c1.4.67,2.45,1.85,2.96,3.31.51,1.46.42,3.04-.26,4.43-.98,2.02-2.98,3.28-5.23,3.28-.87,0-1.72-.2-2.52-.58l-47.57-22.98-5.12-2.47-1.8,5.39c-1.45,4.32-2.86,8.23-4.32,11.97l-1.26,3.21,2.55,2.32c15.46,14.05,28.29,30.44,38.12,48.7.74,1.36.89,2.93.45,4.42-.45,1.48-1.44,2.71-2.81,3.44-.86.46-1.78.7-2.74.7-.87,0-1.75-.2-2.54-.58-1.1-.53-1.99-1.39-2.58-2.47-8.02-14.9-18.24-28.54-30.36-40.55l-4.9-4.85-3.09,6.16c-1.11,2.21-2.13,4.19-3.12,6.03-2.89,5.38-6.21,9.79-9.87,13.08l-2.15,1.94.61,2.83.04.18c.05.22.11.52.12.63,1.51,21.14,7.6,42.2,17.61,60.89,1.51,2.82.44,6.34-2.38,7.85-.85.46-1.77.69-2.73.69-.87,0-1.75-.2-2.54-.58-1.11-.53-2-1.39-2.58-2.48-10.03-18.72-16.44-39.92-18.54-61.31l-.39-3.94-3.93-.53h-.08c-.45-.07-.88-.13-1.24-.2l-2.73-.58-1.92,2.02c-.98,1.03-2.3,1.66-3.72,1.77-.22.02-.44.03-.66.03-1.13,0-2.22-.25-3.22-.73-2.27-1.09-3.78-3.23-4.15-5.86-.69-4.81,2.53-9.64,7.03-10.55.73-.15,1.47-.22,2.22-.22,2.8,0,5.23,1.06,7,1.83l.23.1c.45.2,1.01.45,1.66.66.57.18,1.17.27,1.79.27,5.28,0,10.85-6.86,14.3-13.28,9.35-17.4,16.52-36.25,21.32-56.03l1.44-5.96-6.13-.22c-9.28-.33-19.16-2.57-30.21-6.86l-3.68-1.43-2.24,3.25c-24.73,35.88-39.58,77.76-42.95,121.12-.09,1.17-.53,2.27-1.28,3.19l-2.44,3,2.29,3.11c9.17,12.44,18.61,22.88,28.88,31.93,2.55,2.25,2.79,6.15.55,8.69-1.17,1.33-2.86,2.09-4.63,2.09-.92,0-1.84-.21-2.67-.61-.5-.24-.97-.56-1.4-.93-28.75-25.35-47.77-58-64.03-89.5l-5-9.69-4.08,10.11c-4.55,11.27-5.34,23.55-2.24,34.58.87,3.08-.94,6.29-4.01,7.15-.52.15-1.05.22-1.58.22-.86,0-1.73-.2-2.52-.58-1.5-.72-2.62-2.06-3.06-3.66-5.28-18.79-1.3-40.28,10.38-56.08l1.82-2.46-1.36-2.74-.29-.59-.72-1.45c-5.02-10.1-9.94-19.98-15.04-29.71l-3.78-7.21-4.72,6.62c-.11.15-.2.3-.31.47-12.72,15.92-18.24,37.39-14.75,57.48.27,1.53-.08,3.07-.97,4.33-.89,1.27-2.22,2.11-3.75,2.38-.33.06-.67.09-1.01.09-.87,0-1.71-.19-2.5-.57-1.71-.83-2.88-2.37-3.2-4.24-4.07-23.39,2.39-48.4,17.27-66.91,1.03-1.28,2.54-2.03,4.25-2.12l8.11-.4-4.01-7.06-.73-1.29c-1.53-2.7-3.12-5.5-4.75-8.2-20.43-33.86-46.7-63.47-75.97-85.65l-5.6-4.24-2.18,6.68c-4.39,13.49-6.85,27.66-7.31,42.13l-.12,3.74,3.55,1.17,19.85,6.53c1.46.48,2.64,1.51,3.35,2.9.7,1.39.82,2.96.34,4.43-.78,2.38-3,3.99-5.5,3.99-.61,0-1.23-.1-1.82-.29l-12-3.95-7.53-2.48,1,7.86c.7,5.49,1.48,10.01,2.45,14.23.72,3.12-1.24,6.24-4.36,6.95-.43.1-.87.15-1.3.15-.86,0-1.73-.2-2.51-.58-1.6-.77-2.74-2.2-3.14-3.93-1.86-8.12-3.09-16.59-3.66-25.19l-.22-3.37-3.2-1.05-64.69-21.29c-16.36-5.39-33.28-10.95-49.24-18.66-4.89-2.36-9.35-4.75-13.64-7.31-20.05-11.94-37.51-28.49-50.51-47.85-.92-1.37-1.19-3.05-.75-4.71l1.42-5.39-5.51-.83c-17.64-2.65-35.08-6.78-51.85-12.27l-10.62-3.48,4.49,10.24c1.54,3.52,2.98,7.07,4.45,10.71l1.54,3.82c8.42,20.68,18.86,32.06,31.03,33.81,1.53.22,2.89,1.02,3.81,2.26.93,1.24,1.32,2.77,1.1,4.31-.41,2.84-2.87,4.98-5.73,4.98-.28,0-.56-.02-.84-.06-3.62-.52-7.12-1.59-10.43-3.19-11.83-5.72-21.82-18.41-29.69-37.72l-1.57-3.88c-5.33-13.25-10.83-26.95-21.07-34.8l-.45-.34-.51-.23c-11.96-5.48-23.69-11.75-34.86-18.63l-1.3-.8-1.53.06c-.48.02-.95.04-1.43.07-.91.04-1.76.08-2.61.1h-.14c-.88,0-1.73-.19-2.52-.57-1.83-.89-3.06-2.74-3.21-4.84l-.17-2.39-1.96-1.37c-13.13-9.13-25.34-19.02-36.29-29.41l-.04-.04-3.54-3.54-3.54,3.54c-.95.95-1.9,1.9-2.85,2.85-1.47,1.46-2.94,2.93-4.42,4.42-33.55,33.8-68.23,68.76-113.6,76.51-.33.06-.66.08-.99.08-.87,0-1.71-.19-2.5-.58-1.72-.83-2.88-2.38-3.2-4.25-.54-3.15,1.59-6.16,4.74-6.69,4.53-.77,9.12-1.92,14.05-3.51l2.86-.92.52-2.96c.28-1.6,1.17-2.97,2.49-3.84,2.13-1.4,3.33-3.29,3.79-5.96,1.24-7.31-3.51-17.52-8.77-24.39-12.89-16.86-27.75-32.23-44.16-45.7-3.38-2.77-6.7-5.37-10.67-8.47-11.59-9.05-23.57-18.41-32.96-30.43-3.8-4.87-7.01-9.95-10.23-15.15l-2.87-4.64-4.37,3.26c-5.02,3.75-9.95,7.89-14.64,12.3l-1.86,1.75.33,2.53c.15,1.12-.03,2.25-.51,3.24-.97,2.01-2.97,3.26-5.22,3.26-.17,0-.34,0-.51-.02l-2.53-.22-1.67,1.92c-20.69,23.75-34.56,52.1-40.11,81.99-.51,2.75-2.9,4.75-5.69,4.75-.35,0-.71-.03-1.07-.1-.51-.09-1.01-.26-1.47-.48-2.34-1.13-3.65-3.71-3.17-6.28,5.5-29.66,18.85-58.2,38.6-82.53l3.99-4.91-5.7-2.74-65.05-31.28c-7.27-3.5-17.78-7.67-26.53-7.67-5.67,0-10.09,1.7-13.15,5.06-1.11,1.22-2.64,1.89-4.29,1.89-.87,0-1.74-.2-2.52-.57-.5-.24-.97-.56-1.39-.94-1.15-1.04-1.82-2.47-1.89-4.02-.07-1.55.46-3.03,1.51-4.18,5.45-5.98,12.44-8.89,21.36-8.89,2.72,0,5.64.28,8.69.83l11.2,2.03-6.08-9.62c-.3-.48-.59-.96-.88-1.45-.24-.4-.48-.8-.72-1.2l-1.83-2.97-3.42.69c-.41.08-.83.12-1.25.12-1.67,0-3.23-.65-4.38-1.83-12.6-12.87-31.02-20.56-49.29-20.56-1.98,0-3.98.09-5.92.27-.19.02-.38.03-.57.03-.93,0-1.83-.21-2.67-.61-1.96-.95-3.26-2.81-3.46-4.98-.31-3.38,2.19-6.38,5.57-6.7,2.37-.22,4.79-.33,7.18-.33,12.16,0,24.47,2.85,35.59,8.24l11.63,5.64-4.81-12c-1.83-4.57-3.33-8.61-4.58-12.36-.49-1.47-.38-3.04.31-4.43.69-1.39,1.88-2.42,3.36-2.91.6-.2,1.22-.3,1.84-.3,2.49,0,4.7,1.59,5.49,3.97,8.98,26.88,23.54,52.4,42.12,73.8.1.15.2.29.31.43l.72.93,1.06.51,57.63,27.71,3.15,1.51,2.5-2.44c5.84-5.68,12.08-10.98,18.55-15.76l4.22-3.12-3.32-4.07c-13.17-16.14-32.7-27.05-53.57-29.95l-3.81-.53-1.49,3.55c-.56,1.34-1.6,2.41-2.91,3.02-.78.36-1.6.54-2.44.54-2.25,0-4.32-1.32-5.26-3.37l-3.38-7.29c-.82-1.77-.7-3.81.32-5.48,1.02-1.66,2.79-2.69,4.74-2.76,1.03-.04,2.08-.05,3.12-.05,28.67,0,57.39,13.98,74.95,36.47,1.87,2.4,3.8,5.11,5.88,8.28l.02.03.02.03s.04.05.05.08c.02.03.04.06.06.09l.04.06.04.06c1.72,2.63,3.37,5.3,5.06,8.02l.04.06c3.41,5.51,6.63,10.72,10.41,15.57,8.5,10.88,19.39,19.39,30.96,28.43l.33.26c3.5,2.73,7.11,5.56,10.56,8.39,6.44,5.28,12.75,10.95,18.77,16.84l3.46,3.39,3.5-3.36c1.08-1.04,2.55-1.63,4.04-1.63,1.06,0,2.1.3,3.01.87,7.92,4.91,17.27,7.51,27.05,7.51,10.85,0,21.45-3.29,29.87-9.27.25-.18.56-.35.95-.53l2.57-1.19.3-2.82c.34-3.22.81-6.51,1.42-10.04l.24-1.36-.5-1.29c-5.87-15.26-12.56-31.16-21.71-44.1l-1.06-1.49-1.77-.46c-.42-.11-.78-.24-1.07-.38-1.5-.72-2.62-2.06-3.07-3.66-.11-.41-.21-.82-.31-1.24-.09-.39-.18-.77-.28-1.16l-.34-1.3-.94-.96c-4.68-4.76-9.53-8.49-14.83-11.41-9.99-5.49-21.39-8.06-33.47-10.78-16.07-3.61-32.69-7.35-45.82-18.61-4.13-3.54-7.49-7.5-10.23-10.9l-1.46-1.82-2.33-.05c-1.04-.02-2.54-.3-3.86-1.54-3.02-2.82-7.35-4.45-11.88-4.45-3.46,0-6.68.93-9.31,2.68-.96.64-2.07.97-3.21.97-.88,0-1.76-.2-2.54-.58-.92-.45-1.72-1.14-2.3-2.01-1.77-2.66-1.05-6.27,1.61-8.05,2.66-1.77,5.66-3.06,8.91-3.83l9.08-2.14-6.81-6.37c-23.28-21.79-51.8-37.23-82.49-44.63-3.11-.75-5.03-3.89-4.28-7,.63-2.62,2.95-4.44,5.63-4.44.46,0,.92.06,1.37.16,16.61,4.01,32.8,10.31,48.11,18.73l7.68,4.22-.27-8.76c-.21-6.95.75-14.54,2.94-23.21l1.13-4.47-4.37-1.49c-13.87-4.72-26.69-11.11-37.4-16.74l-2.11-1.11-2.19.94c-.7.3-1.28.47-1.81.52-19.03,1.85-37.61,10.76-50.95,24.45-1.17,1.2-2.74,1.86-4.41,1.86-.93,0-1.85-.21-2.68-.61-.6-.29-1.14-.67-1.62-1.14-2.43-2.37-2.48-6.28-.11-8.71,9.71-9.96,22.02-17.85,35.61-22.8l10.77-3.93-10.21-5.22c-.6-.31-1.2-.62-1.8-.93-1.23-.64-2.51-1.3-3.78-1.92-.44-.22-.89-.43-1.35-.66-22.84-11.03-42.52-16.4-60.17-16.4-6.22,0-12.25.69-17.95,2.05-.47.11-.96.17-1.44.17-.91,0-1.83-.21-2.66-.61-1.68-.81-2.88-2.31-3.31-4.11-.79-3.3,1.25-6.63,4.56-7.42,6.64-1.59,13.63-2.4,20.79-2.39,19.55,0,40.99,5.77,65.55,17.63.46.22.92.44,1.39.68,7.99,3.92,15.85,8.16,23.45,12.26,15.89,8.57,30.9,16.67,47.23,22.29l4.72,1.63,1.63-4.72.2-.58.2-.59,1.89-5.51c11.71-34.57,2.83-50.07-3.5-56.24-1.18-1.15-1.84-2.68-1.86-4.33-.02-1.64.6-3.2,1.75-4.38,1.17-1.2,2.74-1.86,4.42-1.86s3.13.62,4.29,1.75c6.26,6.09,10.31,13.95,12.04,23.34l.92,5,4.98-1,13.69-2.75c.4-.08.81-.12,1.22-.12,2.91,0,5.45,2.08,6.02,4.95.32,1.61,0,3.25-.91,4.62-.91,1.37-2.3,2.3-3.92,2.62l-17.71,3.56-3.54.71-.44,3.59c-.93,7.68-2.88,15.92-5.77,24.47l-1.93,5.62c-6.43,18.63-13.08,37.89-6.46,54.53.34.86.46,1.82.36,2.86l-.27,2.77,2.21,1.69c12.57,9.61,23.88,20.64,33.62,32.78,1.03,1.28,2.05,2.6,3.1,3.94l.03.04h0c3.92,5.02,7.62,9.75,12.08,13.58,8.28,7.09,18.86,10.56,27.16,12.8l5.34,1.44.89-5.46c6.17-37.68-16.09-79.13-50.68-94.36h-.03s-.04-.03-.04-.03l-.13-.06c-2.82-1.36-4.04-4.68-2.78-7.55.93-2.11,3.01-3.47,5.32-3.47.8,0,1.58.17,2.33.5,19.49,8.53,36.08,24.33,46.73,44.49,10.62,20.13,14.37,42.78,10.56,63.8l-.85,4.67,4.61,1.09c9.15,2.17,18.88,4.85,28.02,9.74l7.57,4.05-.22-8.59c-.34-13.49,1.39-27.04,5.15-40.27l.66-2.32-1.41-1.96c-.63-.87-1.33-2.31-1.14-4.2,1.75-17.31-8.64-31.67-20.67-48.32-7.12-9.85-14.48-20.03-19.22-31.28-7.62-18.11-7.81-37.65-7.99-56.54v-.08c-.08-8.26-.16-16.07-.81-23.87-.81-9.81-3.14-19.45-6.72-27.85l-1.57-3.68-3.94.73c-.39.07-.79.11-1.18.11-.91,0-1.79-.2-2.62-.6-1.48-.72-2.59-1.98-3.12-3.53-.53-1.56-.43-3.23.29-4.7.12-.24.23-.48.35-.73.09-.19.18-.39.28-.58l1.61-3.31-2.68-2.52c-5.11-4.82-10.86-7.86-17.1-9.05-1.61-.3-3-1.21-3.92-2.57-.93-1.36-1.27-3.01-.96-4.63.55-2.9,3.09-5.01,6.03-5.01.39,0,.78.04,1.17.11,6.22,1.18,12.53,4.01,18.26,8.18l4.91,3.58,2.57-5.5c1.62-3.46,3.22-6.99,4.77-10.4l.95-2.09,1.78-3.91-3.59-2.35c-13.49-8.81-24.8-21.2-32.73-35.82-7.98-14.72-12.1-30.95-11.93-46.95.04-3.36,2.8-6.09,6.15-6.09h.07c1.64.02,3.18.68,4.33,1.85,1.15,1.18,1.77,2.73,1.76,4.38-.3,27.16,13.45,54.06,35.9,70.22l5.03,3.62,2.48-5.68c4.87-11.17,8.81-20.44,12.39-29.19.95-2.32,3.19-3.82,5.7-3.82.8,0,1.58.16,2.32.46,3.14,1.3,4.66,4.9,3.38,8.04-9.57,23.36-20.17,47.3-31.5,71.16l-1.19,2.5,1.49,2.33c7.3,11.45,11.7,25.68,13.08,42.27.69,8.27.77,16.69.85,24.85.18,18.52.35,36.01,7.03,51.88,4.2,9.97,10.83,19.14,17.85,28.84,6.86,9.49,13.95,19.29,18.44,29.82l3.78,8.87,5.07-8.19c2.65-4.28,5.5-8.34,8.46-12.05,1.1-1.39,2.76-2.18,4.55-2.18,1.32,0,2.57.44,3.61,1.26,2.5,1.99,2.92,5.65.92,8.15-21.81,27.4-30.57,64.42-23.43,99.01l.26,1.27.85.98c6.59,7.63,12.57,17.12,18.3,29l5.09,10.57,4.1-10.99c1.38-3.69,2.9-7.44,4.51-11.15l.77-1.77-.61-1.83c-.29-.86-.53-2.2-.04-3.67,5.24-15.68,2.24-34.38-7.64-47.64-.93-1.24-1.31-2.77-1.09-4.3.22-1.53,1.03-2.89,2.28-3.81.73-.54,1.61-.89,2.63-1.04l3.58-.51.63-3.56,10.05-56.57c.52-2.94,3.06-5.08,6.05-5.08.36,0,.73.03,1.09.1,3.35.6,5.58,3.8,4.99,7.14l-12.13,68.25c-.11.62-.35,1.26-.75,1.95l-1.2,2.11.91,2.25c.98,2.41,1.82,4.94,2.52,7.52l2.94,10.96,6.1-9.57c8.17-12.82,17.61-25.83,28.86-39.8l1.21-1.5-.11-1.92c-.79-13.74,1.68-28.41,7.75-46.16l.98-2.87-2.09-2.2c-14.51-15.22-30.93-33.29-42.22-55.29-2.03-3.96-3.92-8.2-5.61-12.6l-1.24-3.25-3.48.04h-.09c-.96,0-1.85-.19-2.66-.57h-.01s-.08-.05-.08-.05c-26.53-13.43-49.28-33.59-65.8-58.3-1.89-2.82-1.12-6.65,1.7-8.54,1.02-.68,2.19-1.04,3.41-1.04,2.07,0,3.99,1.02,5.13,2.73,1.91,2.86,4.01,5.77,6.23,8.66l5.72,7.43,2.99-8.88c5.58-16.61,13.83-33.44,25.94-52.98l1.95-3.15-2.44-2.78c-18.31-20.88-32.23-45.79-40.26-72.06-.48-1.57-.32-3.24.45-4.69.77-1.45,2.06-2.52,3.64-3,.59-.18,1.2-.27,1.81-.27,2.72,0,5.08,1.75,5.88,4.36,6.9,22.56,18.49,44.23,33.51,62.64l4.26,5.22,3.76-5.59c3.42-5.08,6.89-10.15,10.15-14.91,5.96-8.68,11.32-16.54,16.64-24.71l1.98-3.05-2.28-2.82c-6.47-7.99-14.78-14.81-22.85-21.42-3.62-2.97-7.36-6.04-10.95-9.21-18.25-16.13-27.61-32.71-27.84-49.29-.02-1.64.6-3.2,1.74-4.38,1.15-1.18,2.68-1.84,4.32-1.86h.09c3.35,0,6.11,2.72,6.15,6.07.18,12.96,8.15,26.5,23.69,40.23,3.43,3.03,6.93,5.9,10.63,8.94,6.34,5.2,13.53,11.09,19.74,17.65l4.62,4.88,3.35-5.82c5.3-9.22,9.68-17.94,13.39-26.66l.88-2.07-.96-2.03c-.46-.97-.9-2.51-.36-4.35,4.85-16.54,7.6-33.78,8.18-51.25l.05-1.43-.72-1.24c-.06-.11-.13-.21-.19-.31-6.18-11.2-18.61-18.11-31.77-25.43-16.86-9.37-34.29-19.07-38.32-38.95-.67-3.33,1.48-6.59,4.81-7.26.41-.08.83-.13,1.24-.13,2.91,0,5.44,2.07,6.02,4.93,2.91,14.33,17.16,22.25,32.24,30.64,5.42,3.01,11.55,6.42,17.23,10.32l9.2,6.32-1.41-11.07c-3.38-26.5-11.54-51.56-24.24-74.46-1.65-2.97-.57-6.72,2.4-8.37.93-.51,1.93-.77,2.97-.77M439.52,513.69l14.6-17.08c20.21-23.65,38.15-45.13,53.08-68.46,17.39-27.17,27.7-52.67,31.52-77.98.42-2.81,2.88-4.93,5.72-4.93.29,0,.59.02.89.07,1.53.23,2.88,1.04,3.8,2.29.92,1.25,1.3,2.78,1.06,4.31-.94,6.23-2.31,12.63-4.2,19.57l-2.53,9.31,9.06-3.3c3.83-1.39,8.05-3.78,12.91-7.31l5.13-3.72-4.81-4.12c-1.14-.97-1.76-2.31-1.76-3.77.03-26.1.76-53.57,9.15-77.41l-9.27-3.72c-12.49,27.69-33.26,67.5-69.31,93.52l-1.15.83-.54,1.32-14.37,34.9-.3.74-.06.8-1.08,14.69c-.2,2.77-2.28,5.06-5.04,5.56l-2.69.49-1.04,2.53-10.57,25.68c-1.39,3.38-2.87,6.99-4.33,10.66l-1.01,2.55,1.61,2.22c1.78,2.47,1.49,5.9-.68,8-.75.72-1.67,1.23-2.73,1.51l-2.69.69-.83,2.65c-.61,1.95-1.12,3.67-1.56,5.25l-5.97,21.66M534.47,532.24c-.66,0-1.31-.11-1.94-.34-2.98-1.06-6.13-1.7-9.36-1.9l-3.87-.24-1.19,3.69c-.78,2.4-2.98,4.02-5.48,4.02-.29,0-.59-.02-.89-.07-.58-.09-1.13-.26-1.65-.51-.82-.4-1.54-.99-2.1-1.73l-1.37-1.78-2.22-.19c-.33-.03-.73-.06-.9-.1l-5.78-1.42-.41,5.93c-1.03,15.07-2.68,30.07-4.89,44.61l-1.74,11.45,9.53-6.58c11.08-7.65,22.54-15.05,34.08-21.98l1.93-1.16.41-2.22c.34-1.86,1.49-3.38,3.15-4.18,24.59-11.91,44.63-33.66,56.43-61.23,11.8-27.57,13.71-57.08,5.36-83.1-.98-3.05.71-6.32,3.75-7.3.58-.19,1.18-.28,1.77-.28,2.53,0,4.75,1.62,5.52,4.03,3.89,12.1,5.81,24.99,5.71,38.29l-.07,9.93,8.02-5.86c13.52-9.88,25.38-22.73,34.28-37.15l.86-1.39-.13-1.62c-.18-2.3,1.03-4.47,3.08-5.54l1.45-.76.72-1.47c3.78-7.65,6.75-15.53,8.83-23.43.67-2.55,2.98-4.32,5.61-4.32.5,0,1,.07,1.49.2.37.1.78.27,1.25.52l6.99,3.76.37-7.92c.54-11.56-4.32-23.57-9.48-36.29-4.19-10.33-8.52-21.02-10.14-32.32l-1.28-8.93-6.9,5.82-46.2,38.95-2.69,2.27,1.22,3.29c.4,1.09.47,2.26.2,3.39-8.09,33.62-28.91,62.11-49.06,89.68-17.77,24.31-34.56,47.28-43.41,73.48l-1.94,5.73,5.99.83c3.17.44,6.2,1.16,9.01,2.16,1.44.51,2.6,1.56,3.27,2.96.67,1.41.76,2.99.24,4.45-.82,2.31-3.02,3.86-5.47,3.86M544.38,388.99c-.19,0-.38,0-.56,0l-3.46-.07-1.28,3.22c-17.16,43.06-48.86,80.13-79.52,115.97-4.46,5.22-8.48,9.92-12.44,14.61-.98,1.16-1.92,2.3-2.86,3.44l-1.05,1.27-.97,1.17-.15,1.51c-.25,2.43-1.91,4.48-4.23,5.22l-1.45.46-.95,1.2c-31.73,40.09-51.38,76.94-58.4,109.52l-.18.83.11.84c.15,1.18-.08,2.37-.67,3.45l-.39.73-.14.82c-1.89,11.32-2.31,22.13-1.29,33.04l.98,10.45,7.5-7.34c5.44-5.33,10.9-10.81,16.02-15.98,4.5-4.54,9.61-9.69,14.64-14.64,8.53-8.39,17.62-16.83,27.03-25.1l4.98-4.38-5.59-3.58c-1.69-1.08-2.69-2.79-2.73-4.67-.06-2.73,1.81-5.17,4.46-5.79l3.56-.83.29-3.65c.25-3.26-.61-8.55-3.1-12.48-10.82-17.08-11.64-29.27-2.42-36.26,1.01-.77,2.22-1.17,3.49-1.17,1.84,0,3.53.84,4.64,2.29,1.91,2.52,1.48,6.05-.99,8.03l-1.77,1.42-.09,2.27c-.11,2.67,1.01,7.82,6.95,17.2,3.03,4.78,4.88,11.15,4.94,17.04l.11,10.23,8-6.36c2.72-2.16,5.22-4.12,7.66-6l1.63-1.26.27-2.05c.08-.63.2-1.11.36-1.5.34-.8.89-1.53,1.65-2.16l2.06-1.72-.29-2.66c-.07-.62-.06-1.16.03-1.65,5.84-32.69,8.62-66.09,8.25-99.27-.02-1.55.57-3.02,1.65-4.12,1.08-1.11,2.53-1.73,4.08-1.74h.06c3.16,0,5.77,2.57,5.8,5.73.08,6.83,0,13.98-.23,21.84l-.22,7.38,6.94-2.54c.25-.09.5-.19.75-.29.21-.08.42-.17.63-.24l2.57-.85.7-2.61c8.44-31.62,28.39-58.9,47.67-85.29,15.14-20.71,29.43-40.27,39.03-61.94l8.79-19.83-16.58,13.98-6.67,5.62c-9.08,7.66-22.8,19.23-37.6,19.23M892.55,579.68c-.07,0-.15,0-.22,0-.4-.02-.83-.08-1.29-.21l-1.49-.4-1.45.51-36.89,12.91-2.38.83-.74,2.41c-.54,1.76-1.13,3.64-1.78,5.47-.82,2.31-3.02,3.87-5.47,3.87-.66,0-1.31-.11-1.93-.33-.21-.08-.42-.16-.61-.26-1-.49-1.85-1.29-2.45-2.32l-2.07-3.58-3.9,1.37-34.28,12-13.41,4.69,13.39,4.74c14.5,5.13,28.58,12.33,42.2,19.29l.25.13c8.56,4.37,16.66,8.49,24.89,12.19,5.02,2.25,10.46,4.43,16.65,6.65l3.79,1.36,2.14-3.41c.42-.66.84-1.17,1.31-1.54,17.03-13.73,32.37-29.53,45.61-46.97,1.18-1.55,2.97-2.44,4.92-2.44,1.34,0,2.62.43,3.71,1.26,2.7,2.05,3.23,5.92,1.18,8.63-11.57,15.24-24.82,29.41-39.39,42.12l-7.29,6.36,9.4,2.27c20.32,4.91,41.66,7.41,63.42,7.41,24.08,0,48.49-3.04,72.56-9.04,2.92-.73,5.81-1.52,8.5-2.27l3.43-.95.22-3.56c1.37-22.09,6.11-44.01,14.09-65.17l1.57-4.17-3.96-2.04c-.17-.09-.32-.16-.45-.21-5.93-3.31-12.67-4.92-20.59-4.92-10.01,0-20.85,2.56-32.33,5.26l-.09.02c-9.66,2.28-20.6,4.86-31.21,5.56l-6.17.41,1.69,5.95c2.51,8.84,2.52,18,.04,26.49-.76,2.61-3.19,4.43-5.9,4.43-.58,0-1.17-.08-1.75-.26-.31-.09-.63-.21-.95-.37-2.71-1.31-4.07-4.37-3.22-7.27,2.8-9.57,1.18-20.67-4.23-29.05-.06-.11-.13-.24-.22-.39l-1.02-1.64-1.85-.53c-8.15-2.34-15.64-6.26-22.89-10.04-6.71-3.51-13.65-7.13-20.68-9.11l-1.52-.43-1.49.52-10.38,3.63-1.46.51-.92,1.24c-1.11,1.5-2.81,2.37-4.66,2.37M802.67,730.23c-1.18,0-2.31-.35-3.28-1.03-7.17-4.97-14.72-9.7-23.06-14.46l-1.43-.82-1.63.19c-28.4,3.34-54.02,6.11-80.05,6.11-10.53,0-20.28-.45-29.81-1.38-26.08-2.54-49.76-8.87-70.38-18.84-5.71-2.76-11.33-5.91-16.7-9.35l-2.03-1.3-2.28.78c-18.99,6.46-41.55,13.67-64.89,18.14l-14.73,2.82,13.48,6.58c37.71,18.41,79.12,29.16,119.76,31.08,9.62.45,19.5.45,29.06.45h.08c15.23,0,30.98,0,46.54,1.8,17.56,2.03,35.33,6.55,52.81,13.43l3.12,1.23,2.32-2.43c.61-.64,1.65-1.45,3.15-1.72l67.08-11.94h0s15.72-2.8,15.72-2.8l34.6-6.16c13.04-2.32,26.53-4.72,40.19-4.72,2.77,0,5.51.1,8.15.3,7.26.54,14.92,1.98,22.77,4.28l15.24,4.46-9.93-12.39c-12.08-15.07-23.38-30.57-33.58-46.08-.22-.33-.41-.75-.6-1.3l-.96-2.78-2.89-.51c-19.68-3.49-38.61-9.08-56.28-16.62l-2.97-1.27-2.38,2.18c-17.66,16.21-23.76,43.87-14.5,65.77.92,2.18.43,4.68-1.26,6.36l-2.83,2.81-3.68-1.67c-.11-.05-.21-.09-.3-.13-1.17-.62-2.1-1.63-2.62-2.86-10.03-23.72-5.33-53.07,11.71-73.05l4.14-4.85-5.7-2.86c-2.99-1.5-6.17-3.1-9.31-4.7-25.25-12.91-49.1-25.11-74.11-25.11-.68,0-1.35,0-2.03.03l-.78.02-.74.26-72.92,25.52-13.34,4.67,13.3,4.76c36.4,13.02,66.51,24.92,95.15,40.69l.52.28.57.16c.82.23,1.6.66,2.3,1.28l.4.35.46.26c8.69,4.93,17,10.14,24.69,15.47,1.27.88,2.13,2.21,2.4,3.73.28,1.52-.06,3.07-.94,4.34-1.08,1.56-2.87,2.5-4.79,2.5M692.99,708.61c13.6,0,28.18-.77,45.87-2.44l18.88-1.77-17.3-7.77c-26.08-11.71-53.3-21.33-79.61-30.64-.21-.08-.42-.16-.62-.26-.83-.4-1.55-1.02-2.14-1.85l-2.18-3.04-3.53,1.24-53.05,18.57-11.45,4.01,10.95,5.22c24,11.45,48.98,15.79,65.71,17.41,9.05.88,18.36,1.31,28.46,1.31M1026.29,717.04l5.36-12.11c1.48-3.35,3.24-6.73,5.22-10.07l.73-1.23-.03-1.43c-.02-.91.15-2.28,1.06-3.6.24-.35.58-.71,1.05-1.13l14.7-12.86-19.08,4.21c-4.55,1.01-9.01,1.9-13.25,2.65l-5.02.89.98,5c1.23,6.23,2.63,11.81,4.28,17.05l3.98,12.63M329.63,685.47c-4.56,0-9.11-.47-13.53-1.39l-13.71-2.87,8.8,10.9c1.76,2.17,3.27,4.09,4.62,5.86,6.52,8.53,10.71,18.76,11.21,27.38l.49,8.44,7.16-4.49c9.38-5.88,19.07-13.24,29.6-22.52l3.15-2.78-2.19-3.58c-.46-.75-.72-1.38-.83-2-.77-4.52-1.32-9.26-1.63-14.11l-.45-7.14-6.55,2.88c-8.04,3.54-17.08,5.41-26.14,5.41M968.05,686.26c-7.37,0-14.76-.28-21.97-.83l-10.51-.8,6.03,8.65c12.19,17.49,25.21,34.24,38.7,49.78,1.3,1.5,1.73,3.54,1.15,5.48l-1.17,3.88,3.56,1.95c4.95,2.71,10.01,5.71,15.47,9.18,6.32,4.02,12.82,8.49,20.45,14.07l11.1,8.11-3.29-13.35c-2.55-10.34-3.82-19.07-4-27.46-.06-2.73.02-5.6.23-8.52l.2-2.81-2.3-1.63c-.81-.58-1.44-1.33-1.88-2.24-6.14-12.9-10.64-26.77-13.38-41.21l-.86-4.53-4.59.49c-11.02,1.19-22.1,1.79-32.93,1.79M646.66,801.39l2.45-6.09c.44-1.09,1.19-2.01,2.16-2.66,12.2-8.11,26.73-12.39,42-12.39,18.33,0,35.82,6.21,49.26,17.48,1.19,1,1.92,2.39,2.05,3.94.14,1.54-.34,3.05-1.34,4.23-1.1,1.32-2.73,2.07-4.45,2.07-.96,0-2.39-.23-3.72-1.36-11.27-9.45-26.11-14.65-41.78-14.65-12,0-23.49,3.08-33.22,8.9l-7.51,4.49,7.68,4.19c17.63,9.63,37.78,16.26,55.55,22.11l57.97,19.08,6.11,2.01.44-6.42c1.07-15.52,4.31-30.68,9.63-45.07l1.41-3.81-3.45-2.16c-28.42-17.8-58.03-28.58-88.01-32.05-14.84-1.72-29.82-1.72-44.31-1.72h-2.28c-10.01,0-19.04-.03-28.25-.47-1.85-.09-3.69-.23-5.63-.38-.76-.06-1.53-.12-2.29-.18l-10.95-.81,6.58,8.79c8.17,10.91,17.82,20.64,28.69,28.92l5.22,3.98M958.4,1009.49l2.08-13.99c1.55-10.42,3.8-20.95,6.68-31.3l1.27-4.55-4.47-1.53c-2.05-.7-3.98-1.48-5.74-2.33-5.62-2.72-10.81-6.51-15-10.97-2.19-2.33-2.07-6.01.26-8.21,1.08-1.01,2.49-1.57,3.96-1.57,1.62,0,3.13.65,4.24,1.83,4.22,4.49,9.63,7.98,15.66,10.1l4.64,1.63,1.7-4.62c7.02-19.02,16.29-37.21,27.53-54.05l3.16-4.73-5.09-2.53c-.54-.27-1.09-.54-1.64-.81-.72-.35-1.43-.7-2.11-1.04l-58.14-29.05-7.3-3.65.06,8.16c.13,16.78,5.41,33.37,14.88,46.72.9,1.26,1.25,2.8.99,4.33-.26,1.53-1.1,2.86-2.36,3.76-.99.7-2.15,1.07-3.35,1.07-.88,0-1.76-.2-2.54-.58-.88-.43-1.62-1.05-2.2-1.86-12.79-18.02-18.81-41.16-16.53-63.5l.35-3.44-3.09-1.54-31.86-15.92c-.15-.07-.43-.27-.73-.48l-2-1.41-2.34.71c-6.68,2.04-13.66,3.35-20.76,3.91l-10.14.79,6.82,7.54c14.08,15.57,26.85,32.79,37.94,51.18,11.13,18.44,20.91,38.15,30.38,57.22,9.14,18.41,17.77,35.8,27.59,52.5l7.17,12.19M911.99,293.94c1.76,0,3.39.72,4.57,2.02,2.28,2.52,2.08,6.42-.43,8.7-9.28,8.4-7.93,21.85-4.79,41.41.85,5.32,1.73,10.82,2.17,16.11.35,4.28.3,8.85-.15,13.58l-.68,7.07,6.89-1.74c7.6-1.92,15.34-2.92,23.02-2.96l3.1-.02,1.36-2.79c1.74-3.56,3.39-7.13,5.03-10.9l1.03-2.37-1.34-2.21c-.59-.97-.9-1.99-.93-3.02-.06-2.74,1.75-5.21,4.41-6l2.48-.74.83-2.45c5.68-16.79,8.26-32.14,7.89-46.9-.09-3.39,2.61-6.22,6-6.31h.16c3.31,0,6.07,2.69,6.15,6,.35,13.77-1.61,27.83-5.98,42.98l-1.96,6.79,7.05-.41c12.17-.71,21.91-2.03,30.63-4.16l2.11-.51,1.06-1.89c.07-.13.13-.25.18-.36,1.13-1.73,3.02-2.76,5.11-2.76.88,0,1.73.19,2.53.55l2,.91,2.03-.86c16.65-7.08,28.91-18.44,34.52-32.01.96-2.31,3.19-3.81,5.69-3.8.79,0,1.57.15,2.32.46,3.13,1.36,4.64,4.97,3.37,8.06-5.18,12.51-14.88,23.51-28.05,31.81l-6.87,4.33,6.97,4.18,23.34,14.02c1.41.85,2.41,2.19,2.8,3.79.4,1.6.15,3.25-.7,4.66-1.12,1.87-3.1,2.99-5.29,2.99-.93,0-1.82-.2-2.65-.61-.17-.08-.34-.17-.5-.27l-36.65-22.01-1.9-1.14-2.12.64c-16.45,4.98-32.99,6.16-48.43,6.69l-3.21.11-1.23,2.97c-3.07,7.39-6.39,14.51-10.14,21.78-1.06,2.06-3.16,3.33-5.47,3.33-.14,0-.29,0-.44-.02-1.92-.14-3.88-.2-5.81-.2-11.52,0-22.74,2.34-33.35,6.97l-1.83.8-.78,1.84c-4.69,11.08-11.75,21.18-20.41,29.2l-5.23,4.85,6.35,3.26c3.62,1.86,6.55,3.51,9.21,5.19,2.87,1.81,3.74,5.62,1.93,8.49-1.13,1.8-3.08,2.88-5.22,2.88-1.16,0-2.29-.33-3.28-.95-7.28-4.58-15.18-8.33-23.49-11.14l-.36-.12-.38-.07c-.6-.1-1.08-.24-1.48-.4l-.2-.1-.37-.18-.39-.12c-3.47-1.06-6.99-1.94-10.55-2.66l17.37-11.78c11.32-7.68,20.46-19.12,25.73-32.22l.23-.57.08-.6c.11-.81.4-1.6.86-2.35l.3-.5.18-.56c2.86-8.79,3.94-17.67,3.22-26.41-.4-4.85-1.21-9.87-2.06-15.18-2.93-18.27-6.24-38.97,8.69-52.49,1.14-1.03,2.6-1.59,4.13-1.59M1036.34,394.69c3.04,0,5.66,2.28,6.08,5.3l10.07,71.32c.04.28.04.68.03,1.03l-.13,5.1-5.03.79c-.11.02-.21.04-.31.06-.22.02-.44.04-.66.04-.92,0-1.82-.21-2.65-.61-1.86-.9-3.14-2.65-3.43-4.69l-10.07-71.32c-.23-1.63.19-3.25,1.18-4.56.99-1.31,2.43-2.16,4.06-2.39.29-.04.59-.06.87-.06M1001.02,439.98c.13,0,.26,0,.4.01,3.39.21,5.97,3.14,5.76,6.53-1.15,18.4,3.68,37.1,13.6,52.63.67,1.05,1,2.28.95,3.55l-.32,7.94-7.63-2.38c-.17-.05-.34-.1-.51-.15-.14-.04-.32-.09-.4-.12-1.01-.49-1.86-1.26-2.47-2.21-11.31-17.72-16.82-39.04-15.51-60.03.2-3.24,2.9-5.77,6.13-5.77M418.21,2.5c-1.83,0-3.69.45-5.4,1.4-5.39,2.99-7.33,9.78-4.35,15.17,12.51,22.56,20.42,47.32,23.65,72.67-5.77-3.96-11.86-7.36-17.64-10.57-14.66-8.15-27.32-15.19-29.77-27.27-1.07-5.29-5.72-8.94-10.92-8.94-.74,0-1.48.07-2.23.23-6.04,1.23-9.94,7.11-8.71,13.15,4.49,22.14,23.78,32.87,40.8,42.33,12.58,6.99,24.46,13.6,29.91,23.63.05.09.11.16.16.24-.56,16.86-3.19,33.68-7.98,50.01-.8,2.73-.49,5.51.64,7.9-3.79,8.89-8.23,17.6-13.13,26.13-6.32-6.67-13.33-12.44-20.2-18.07-3.67-3.01-7.13-5.85-10.49-8.82-14.44-12.76-21.84-25.05-22-36.55-.08-6.11-5.06-11-11.15-11-.05,0-.1,0-.16,0-6.16.08-11.09,5.15-11,11.31.25,18.05,10.18,35.87,29.53,52.97,3.67,3.24,7.46,6.35,11.12,9.35,8.22,6.74,16.04,13.18,22.1,20.68-5.41,8.32-11.02,16.52-16.57,24.61-3.39,4.95-6.8,9.93-10.18,14.95-14.64-17.95-25.84-38.82-32.61-60.94-1.47-4.8-5.88-7.9-10.66-7.9-1.08,0-2.18.16-3.27.49-5.89,1.8-9.21,8.04-7.4,13.93,8.3,27.13,22.57,52.55,41.28,73.9-10.55,17.01-19.96,34.8-26.43,54.02-2.1-2.73-4.12-5.52-6.04-8.39-2.15-3.22-5.69-4.96-9.29-4.96-2.13,0-4.29.61-6.19,1.88-5.12,3.43-6.5,10.35-3.08,15.47,17,25.43,40.41,46.17,67.7,59.99.06.03.13.06.19.09,1.55.75,3.2,1.07,4.82,1.07.05,0,.1,0,.15,0,1.68,4.39,3.6,8.76,5.83,13.09,11.12,21.66,26.93,39.54,43.05,56.45-5.13,14.99-8.97,31.32-8.01,48.07-9.81,12.17-19.9,25.68-29.18,40.25-.74-2.75-1.64-5.46-2.71-8.1.61-1.08,1.1-2.26,1.33-3.55l12.13-68.24c1.08-6.07-2.98-11.85-9.03-12.94-.66-.12-1.32-.17-1.97-.17-5.31,0-10.01,3.8-10.97,9.21l-10.05,56.57c-1.72.25-3.41.87-4.9,1.98-4.79,3.56-5.78,10.33-2.21,15.11,8.93,11.99,11.64,28.9,6.9,43.07-.78,2.32-.68,4.7.04,6.85-1.64,3.76-3.18,7.56-4.62,11.4-5.33-11.07-11.43-21.31-19.02-30.1-6.78-32.86,1.52-68.59,22.45-94.89,3.71-4.67,2.94-11.46-1.72-15.18-1.99-1.58-4.36-2.35-6.72-2.35-3.18,0-6.33,1.39-8.46,4.07-3.18,4-6.11,8.2-8.79,12.53-4.67-10.97-11.89-20.98-18.98-30.79-6.85-9.47-13.32-18.42-17.29-27.85-6.3-14.96-6.46-31.98-6.64-49.99-.08-8.24-.16-16.76-.87-25.22-1.56-18.88-6.81-33.51-13.84-44.55,11.16-23.5,21.79-47.44,31.61-71.41,2.33-5.7-.37-12.19-6.09-14.55-1.38-.57-2.82-.83-4.22-.84-4.39,0-8.56,2.61-10.33,6.93-3.98,9.71-8.13,19.41-12.35,29.08-20.85-15.01-34.1-40.3-33.82-66.1.07-6.16-4.87-11.21-11.03-11.28-.04,0-.08,0-.12,0-6.1,0-11.09,4.92-11.15,11.03-.38,34.49,18.16,68.21,46.92,87.01-1.89,4.15-3.77,8.31-5.7,12.44-6.68-4.87-13.71-7.81-20.27-9.06-.71-.13-1.41-.2-2.1-.2-5.25,0-9.93,3.72-10.94,9.07-1.16,6.05,2.81,11.91,8.87,13.05,5.6,1.06,10.44,3.86,14.6,7.77-.21.43-.41.87-.62,1.3-2.71,5.54-.41,12.22,5.12,14.92.02,0,.03.02.05.02,1.54.74,3.17,1.09,4.77,1.09.7,0,1.4-.07,2.09-.19,3.47,8.15,5.6,17.36,6.34,26.3.63,7.65.71,15.39.79,23.59.19,19.38.38,39.42,8.38,58.43,4.96,11.78,12.49,22.2,19.78,32.27,11.43,15.81,21.31,29.46,19.75,44.89-.29,2.82.52,5.48,2.06,7.61-3.85,13.56-5.69,27.68-5.34,41.76-9.35-5.01-19.32-7.85-29.22-10.19,8.28-45.65-17.7-95.17-60.2-113.77-1.41-.62-2.89-.91-4.34-.91-4.16,0-8.12,2.41-9.89,6.46-2.35,5.34-.02,11.55,5.18,14.06.12.06.24.12.36.17,32.74,14.41,53.54,53.66,47.76,88.98-9.59-2.58-18.34-5.89-25.21-11.77-4.1-3.51-7.65-8.07-11.42-12.9-1.04-1.34-2.08-2.67-3.14-4-10.1-12.6-21.72-23.87-34.48-33.63.17-1.72,0-3.49-.69-5.2-5.93-14.92.41-33.29,6.55-51.06l1.93-5.61c3.07-9.07,5.04-17.57,6.01-25.49l17.71-3.56c6.04-1.21,9.96-7.09,8.74-13.13-1.06-5.3-5.72-8.96-10.92-8.96-.73,0-1.47.07-2.21.22l-13.69,2.75c-1.91-10.39-6.41-19.15-13.47-26.02-2.16-2.12-4.97-3.17-7.78-3.17-2.91,0-5.81,1.13-8,3.38-4.3,4.41-4.21,11.48.21,15.78,12.79,12.45,6.9,37.33,2.25,51.05l-1.88,5.49c-.13.38-.26.77-.4,1.15-15.84-5.45-30.78-13.49-46.48-21.96-7.67-4.14-15.6-8.41-23.63-12.35-.48-.23-.95-.46-1.42-.69-25.1-12.12-47.46-18.13-67.73-18.13-7.6,0-14.91.85-21.95,2.53-5.99,1.43-9.69,7.45-8.25,13.45.81,3.39,3.09,6.05,6,7.45,1.48.72,3.13,1.11,4.84,1.11.86,0,1.73-.1,2.61-.31,5.33-1.27,10.92-1.91,16.78-1.91,16.83,0,35.97,5.26,57.99,15.9.43.21.88.42,1.32.64,1.83.9,3.68,1.88,5.52,2.82-14.08,5.14-27.09,13.36-37.47,24.01-4.3,4.41-4.21,11.48.2,15.78.89.86,1.88,1.55,2.93,2.06,1.53.74,3.19,1.11,4.86,1.11,2.9,0,5.8-1.13,7.99-3.37,12.53-12.86,29.98-21.23,47.85-22.97,1.18-.11,2.28-.46,3.31-.9,12.19,6.4,24.78,12.5,38.11,17.04-2.03,8.05-3.34,16.3-3.09,24.58-15.48-8.52-32.07-15.05-49.34-19.21-.85-.21-1.7-.3-2.54-.3-4.88,0-9.3,3.32-10.49,8.27-1.4,5.81,2.18,11.64,7.96,13.04,30.03,7.24,57.79,22.39,80.25,43.42-3.72.88-7.3,2.38-10.53,4.53-4.96,3.31-6.31,10.01-3.01,14.98,1.11,1.67,2.6,2.93,4.28,3.74,1.47.71,3.09,1.08,4.72,1.08,2.06,0,4.14-.59,5.98-1.81,1.86-1.24,4.19-1.84,6.54-1.84,3.13,0,6.29,1.06,8.46,3.09,2.03,1.9,4.6,2.84,7.18,2.89,3.23,4,6.69,7.97,10.87,11.56,14.06,12.06,31.3,15.94,47.98,19.69,11.73,2.65,22.81,5.15,32.16,10.29,5.09,2.8,9.59,6.38,13.68,10.53.21.83.38,1.67.61,2.49.87,3.11,3.01,5.51,5.71,6.81.64.31,1.31.54,1.99.71,8.58,12.13,15.04,27.18,21.12,43-.6,3.43-1.1,6.89-1.47,10.36-.6.28-1.19.6-1.75.99-7.82,5.55-17.4,8.35-26.97,8.35-8.58,0-17.14-2.24-24.41-6.76-1.77-1.1-3.72-1.62-5.65-1.62-2.75,0-5.46,1.06-7.5,3.02-6.11-5.99-12.49-11.71-19.1-17.13-3.6-2.96-7.29-5.84-10.98-8.72-11.29-8.82-21.97-17.16-30.09-27.57-3.63-4.64-6.79-9.76-10.14-15.18-1.66-2.68-3.35-5.41-5.13-8.13-.04-.06-.06-.13-.1-.2-.04-.06-.09-.11-.13-.17-1.91-2.9-3.92-5.8-6.12-8.61-18.64-23.88-48.62-38.39-78.89-38.39-1.1,0-2.2.02-3.3.06-3.62.13-6.94,2.06-8.83,5.15-1.89,3.09-2.11,6.92-.59,10.2l3.38,7.28c1.83,3.94,5.73,6.26,9.8,6.26,1.52,0,3.07-.32,4.54-1.01,2.55-1.18,4.41-3.22,5.42-5.63,19.5,2.7,37.92,12.89,50.38,28.16-6.7,4.95-13.07,10.37-19.07,16.2l-57.63-27.71c-.12-.15-.2-.32-.33-.47-18.22-20.95-32.51-45.95-41.31-72.29-1.51-4.53-5.72-7.39-10.23-7.39-1.14,0-2.29.18-3.43.56-5.66,1.89-8.72,8.01-6.82,13.66,1.42,4.25,3.01,8.46,4.68,12.64-11.72-5.68-24.69-8.74-37.77-8.74-2.55,0-5.1.12-7.64.35-6.14.57-10.65,6-10.09,12.14.38,4.04,2.86,7.38,6.27,9.03,1.47.71,3.12,1.11,4.84,1.11.34,0,.68-.02,1.03-.05,1.81-.17,3.64-.25,5.46-.25,16.85,0,33.96,7.04,45.72,19.06,2.18,2.22,5.06,3.33,7.95,3.33.75,0,1.5-.07,2.23-.22.55.9,1.07,1.82,1.64,2.71-3.36-.61-6.55-.91-9.58-.91-10.27,0-18.65,3.5-25.05,10.52-4.02,4.41-3.7,11.24.71,15.26.79.72,1.66,1.3,2.58,1.75,1.48.72,3.09,1.07,4.69,1.07,2.93,0,5.86-1.19,7.99-3.53,2.26-2.48,5.62-3.43,9.46-3.43,7.91,0,17.85,4.04,24.36,7.18l65.05,31.28c-19.9,24.51-33.91,53.92-39.63,84.77-.91,4.89,1.64,9.63,5.91,11.69.85.41,1.76.72,2.74.9.67.12,1.33.18,1.98.18,5.1,0,9.65-3.63,10.61-8.83,5.43-29.26,19.29-57.05,38.96-79.62.32.03.63.04.95.04,4.02,0,7.87-2.23,9.73-6.09.94-1.95,1.22-4.05.97-6.05,4.52-4.25,9.25-8.24,14.21-11.94,3.22,5.2,6.58,10.51,10.54,15.6,9.76,12.5,21.99,22.06,33.82,31.29,3.56,2.77,7.11,5.55,10.58,8.4,16.11,13.21,30.7,28.31,43.36,44.87,5.35,7,8.64,15.62,7.81,20.52-.25,1.46-.8,2.08-1.6,2.61-2.58,1.7-4.17,4.32-4.67,7.15-4.37,1.41-8.81,2.56-13.35,3.34-5.88,1.01-9.83,6.59-8.83,12.47.61,3.58,2.92,6.44,5.96,7.91,1.43.69,3.02,1.07,4.68,1.07.6,0,1.21-.05,1.83-.16,46.95-8.03,82.21-43.56,116.32-77.93,2.43-2.45,4.83-4.83,7.25-7.25,0,0,.01.02.02.02,11.5,10.92,23.92,20.91,36.99,30,.28,3.97,2.64,7.35,6.02,8.99,1.42.69,3.01,1.07,4.69,1.07.08,0,.17,0,.25,0,1.39-.03,2.76-.12,4.14-.17,11.39,7.01,23.22,13.33,35.39,18.92,9.11,6.99,14.38,20.03,19.47,32.7l1.57,3.89c8.37,20.56,19.15,34.07,32.15,40.35,3.78,1.82,7.74,3.04,11.89,3.63.52.08,1.04.11,1.56.11,5.28,0,9.9-3.88,10.67-9.26.85-5.91-3.25-11.39-9.15-12.23-10.29-1.48-19.4-11.83-27.11-30.75l-1.54-3.8c-1.43-3.55-2.9-7.2-4.5-10.85,17.19,5.63,34.83,9.78,52.66,12.46-.77,2.9-.37,6.09,1.43,8.77,13.41,19.98,31.43,37.05,52.1,49.36,4.59,2.73,9.27,5.22,14.02,7.51,16.24,7.84,33.26,13.45,49.85,18.91l64.69,21.29c.57,8.75,1.82,17.45,3.77,25.98.76,3.32,2.99,5.94,5.84,7.31,1.44.69,3.03,1.08,4.69,1.08.8,0,1.61-.09,2.42-.28,5.81-1.33,9.45-7.13,8.11-12.94-1.04-4.53-1.77-9.13-2.36-13.75l12,3.95c1.12.37,2.26.55,3.38.55,4.54,0,8.76-2.88,10.25-7.43,1.87-5.67-1.26-11.8-6.88-13.64l-19.84-6.53c.43-13.84,2.78-27.61,7.06-40.74,28.53,21.61,54.19,50.23,74.71,84.24,1.85,3.07,3.63,6.23,5.42,9.38-2.98.15-5.88,1.47-7.89,3.98-15.77,19.61-22.61,46.11-18.3,70.9.62,3.57,2.92,6.42,5.95,7.88,1.43.69,3.02,1.07,4.68,1.07.61,0,1.23-.05,1.86-.16,5.88-1.02,9.81-6.61,8.79-12.49-3.26-18.76,1.92-38.82,13.86-53.66.14-.17.22-.36.35-.53,5.16,9.84,10.12,19.81,14.99,29.61.34.68.68,1.36,1.02,2.04-12.63,17.08-16.93,39.91-11.17,60.4.87,3.1,3.01,5.5,5.7,6.8,1.44.7,3.04,1.08,4.69,1.08.97,0,1.95-.13,2.93-.4,5.74-1.61,9.09-7.58,7.48-13.32-2.85-10.16-1.93-21.45,2.07-31.36,17.15,33.22,36.52,65.7,65.17,90.96.78.69,1.63,1.25,2.53,1.68,1.53.74,3.19,1.1,4.84,1.1,3.09,0,6.17-1.28,8.38-3.78,4.07-4.62,3.63-11.67-.99-15.75-10.63-9.37-19.84-19.85-28.16-31.15,1.33-1.64,2.21-3.69,2.38-5.96,3.31-42.59,17.87-83.53,42.09-118.67,9.95,3.86,20.64,6.8,31.84,7.2-4.62,19.06-11.58,37.56-20.86,54.84-3.98,7.4-8.27,10.65-9.9,10.65-.1,0-.19-.01-.28-.04-.47-.15-.92-.37-1.39-.57-2.04-.89-5.17-2.25-9.01-2.25-1.03,0-2.1.1-3.22.33-7.12,1.45-12.04,8.7-10.97,16.16.63,4.39,3.3,7.9,6.93,9.65,1.64.79,3.47,1.23,5.4,1.23.36,0,.71-.01,1.08-.05,2.75-.23,5.17-1.46,6.93-3.31.56.12,1.13.19,1.69.27,2.16,21.98,8.69,43.73,19.11,63.18,1.12,2.09,2.83,3.66,4.82,4.62,1.47.71,3.08,1.08,4.72,1.08,1.72,0,3.46-.41,5.09-1.28,5.26-2.82,7.24-9.37,4.42-14.62-9.68-18.08-15.57-38.44-17.03-58.89-.04-.52-.15-1.01-.26-1.51,4.01-3.61,7.71-8.45,10.92-14.42,1.09-2.03,2.15-4.09,3.19-6.15,11.71,11.6,21.62,24.78,29.47,39.36,1.12,2.08,2.83,3.64,4.8,4.6,1.47.71,3.08,1.08,4.72,1.08,1.73,0,3.48-.42,5.11-1.29,5.25-2.83,7.22-9.38,4.39-14.63-10.16-18.86-23.34-35.65-39.16-50.03,1.58-4.03,3.04-8.1,4.41-12.21l47.57,22.98c1.51.73,3.12,1.08,4.69,1.08,4.01,0,7.87-2.25,9.73-6.11,2.6-5.37.35-11.83-5.03-14.42l-50.11-24.21c-.27-.13-.56-.2-.83-.3,4.24-17.56,6.61-35.57,7-53.63,2.9,3.56,5.77,7.14,8.55,10.81,2.12,2.81,5.36,4.3,8.63,4.3,2.26,0,4.55-.71,6.5-2.18,4.76-3.59,5.71-10.37,2.11-15.13-16.25-21.53-34.62-41.08-54.8-58.62,1.14-2.37,1.46-5.14.62-7.85-4.3-13.99-8.19-27.68-8.48-41.33-.26-12.47,2.6-24.87,8.1-35.98,21.25,13.93,43.41,26.49,66.29,37.55,13,6.28,26.24,12.08,39.67,17.38,1.34.53,2.73.78,4.09.78,4.45,0,8.65-2.68,10.39-7.07,2.26-5.73-.51-12.12-6.29-14.48-35.48-14-69.53-31.66-101.44-52.54,0-.01.02-.02.03-.03,3.46-3.69,3.8-9.16,1.17-13.23,51.82-15.77,102.02-44,149.44-84.18,4.55-3.85,5.12-10.67,1.26-15.22-2.13-2.53-5.18-3.82-8.24-3.82-2.47,0-4.95.84-6.98,2.56-40.46,34.28-82.9,59.41-126.54,74.99,2.47-23.32,8.99-46.51,19.1-67.58,2.66-5.55.33-12.2-5.21-14.87,0,0-.02,0-.03-.01-1.55-.74-3.17-1.09-4.78-1.09-3.22,0-6.35,1.42-8.49,3.92-9.12-4.83-18.47-6.56-27.89-6.56-12.15,0-24.41,2.88-36.46,5.72-11.49,2.71-22.5,5.31-32.78,5.31-3.66,0-7.22-.33-10.68-1.1-7.16-1.6-14.19-5.21-21.61-9.09l11.57-4.05c1.43-.5,2.87-1.01,4.31-1.51.9.22,1.83.37,2.79.37.18,0,.37,0,.55-.02,3.4-.21,6.32-1.95,8.22-4.47,12.4-4.5,24.81-9.39,36.84-15.34,25.38,7.74,49.27,11.62,71.48,11.62,15.08,0,29.39-1.79,42.88-5.37,24.92-6.61,47.03-19.14,68.42-31.25,5.36-3.04,7.24-9.84,4.21-15.21-2.05-3.62-5.83-5.66-9.72-5.66-1.86,0-3.75.47-5.49,1.45-20.16,11.41-41,23.22-63.15,29.1-11.59,3.08-23.97,4.61-37.09,4.61-14.07,0-28.99-1.76-44.7-5.27,16.54-11.83,30.61-26.08,43.13-41.73,11.13,4.95,23.29,7.43,35.45,7.43,16.97,0,33.94-4.83,48.08-14.49,4.64-3.17,6.09-9.22,3.67-14.12,5.33.48,10.67.73,16.01.73s10.54-.25,15.77-.77c6.13-.61,10.61-6.07,10-12.2-.57-5.75-5.42-10.05-11.08-10.05-.37,0-.75.02-1.13.06-4.66.46-9.36.69-14.06.69-22.25,0-44.65-5.12-64.7-14.71,4.85-8.42,9.59-16.9,14.29-25.34,25.96-46.61,50.49-90.64,90.92-119.09,4.88-3.43,6.05-10.17,2.62-15.05-2.1-2.99-5.45-4.59-8.84-4.59-2.15,0-4.32.64-6.21,1.97-44.47,31.3-71.37,79.57-97.37,126.25-12.94,23.22-25.55,45.8-39.92,66.1-3.45.12-6.8,1.8-8.89,4.88-1.85,2.74-2.28,5.99-1.53,8.96-.7.87-1.39,1.75-2.1,2.61.02-.61.01-1.23-.07-1.86l-10.07-71.32c-.78-5.57-5.56-9.6-11.03-9.6-.52,0-1.05.04-1.57.11-6.1.86-10.35,6.5-9.49,12.61l10.07,71.32c.54,3.83,2.97,6.93,6.2,8.49,1.48.71,3.12,1.11,4.83,1.11.52,0,1.04-.04,1.57-.11.06,0,.11-.03.17-.04-6.64,7.12-13.74,13.72-21.41,19.73.09-2.2-.46-4.44-1.73-6.44-9.35-14.65-13.91-32.28-12.83-49.63.38-6.15-4.29-11.45-10.44-11.83-.24-.01-.47-.02-.71-.02-5.84,0-10.75,4.55-11.12,10.46-1.37,22.04,4.41,44.42,16.28,63.03,1.16,1.81,2.74,3.17,4.54,4.04.5.24,1.04.36,1.56.53-2.26,1.4-4.54,2.77-6.87,4.07-3.15-1.05-6.33-2.15-9.53-3.33-1.27-.47-2.57-.69-3.85-.69-4.55,0-8.82,2.8-10.47,7.31-1,2.72-.87,5.57.14,8.05-3.68,1.53-7.41,2.99-11.14,4.41-2.15-19.2-6.07-38.24-11.64-56.79,13.31-20.61,23.6-42.95,30.53-66.51,1.74-5.92-1.68-12.14-7.55-13.85-1.05-.31-2.11-.46-3.15-.46-4.82,0-9.27,3.15-10.7,8.01-4.64,15.76-10.94,30.92-18.74,45.32-4.61-11.46-9.85-22.66-15.74-33.48-2.03-3.72-5.86-5.82-9.81-5.82-1.8,0-3.63.44-5.33,1.36-5.41,2.95-7.41,9.72-4.46,15.14,19.24,35.31,31.15,74.86,34.89,114.94-.71.25-1.43.5-2.14.75l-35.17,12.31c-1.11-.19-2.22-.39-3.37-.52-.39-.04-.79-.07-1.17-.07-.99,0-1.96.14-2.89.38l2.2-59.13c.22-5.96-4.42-10.97-10.39-11.19-.14,0-.28,0-.42,0-5.78,0-10.56,4.57-10.78,10.4l-2.62,70.44-23.84,8.34c1.24-9.53,1.61-19.17,1-28.69-.36-5.72-5.12-10.12-10.78-10.12-.23,0-.46,0-.69.02-5.95.38-10.48,5.51-10.1,11.47.75,11.82-.23,23.85-2.79,35.49l-24.23,8.48c1.25-12.59-.43-25.38-4.8-37.21,1.17-.74,2.23-1.69,3.08-2.9,15.4-21.88,34.35-40.71,56.33-55.97,4.9-3.4,6.12-10.13,2.71-15.03-2.09-3.02-5.46-4.64-8.88-4.64-2.13,0-4.27.63-6.15,1.93-6.5,4.51-12.74,9.34-18.75,14.41l-16.95-24.22c-2.11-3-5.46-4.61-8.86-4.61-2.14,0-4.3.63-6.19,1.95-4.89,3.42-6.07,10.16-2.65,15.05l18.63,26.62c-8.37,8.44-16.12,17.5-23.24,27.11-1.19-1.62-2.43-3.2-3.75-4.73-1.99-2.31-4.05-4.44-6.05-6.5-3.75-3.88-7.3-7.55-9.45-11.49-5.98-10.98-2.63-25.8,1.66-41.31,1.59-5.75-1.75-11.71-7.53-13.29-.96-.27-1.93-.39-2.89-.39-4.74,0-9.08,3.14-10.4,7.93-5.3,19.14-9.65,39.34.19,57.4,3.55,6.52,8.51,11.65,12.89,16.17,1.77,1.84,3.56,3.67,5.22,5.59,12.81,14.84,17.75,36.65,12.61,55.57-.07.25-.08.5-.13.74l-35.11,12.29c-2.61.18-5.24.49-7.89.92,5.83-13.81,8.33-29.07,6.85-43.93-.55-5.58-5.26-9.73-10.75-9.73-.35,0-.71.02-1.07.05-5.94.59-10.27,5.89-9.68,11.82,1.85,18.63-4.48,38.1-16.95,52.07-.89,1-1.53,2.13-1.99,3.32l-123.64,43.27c-3.36,1.18-6.73,2.35-10.11,3.53-2.99-2.27-5.93-4.64-8.76-7.22-2.07-1.89-4.68-2.83-7.28-2.83-2.93,0-5.85,1.18-7.98,3.52-3.82,4.18-3.69,10.52.09,14.59-10.62,3.42-21.32,6.6-32.11,9.27,3.67-7.26,6.59-14.89,8.61-22.74,1.48-5.78-1.98-11.67-7.78-13.15-.9-.23-1.81-.34-2.69-.34-4.81,0-9.2,3.24-10.46,8.12-3.15,12.28-9.01,23.89-16.86,33.9-4.95.71-9.91,1.27-14.88,1.66-15.32-9.85-29.74-21.04-42.92-33.49,16.54-15.67,33.8-30.35,51.72-44.02,16.6,6.75,36.51,13.73,56.97,13.73,5.58,0,11.19-.52,16.79-1.7,18.99-4.01,34.58-14.66,49.64-24.97,3.77-2.58,7.52-5.15,11.32-7.6,15.44-9.95,29.07-14.95,40.7-14.95,4.13,0,8.01.63,11.62,1.9,1.18.41,2.38.61,3.57.61,4.46,0,8.64-2.79,10.2-7.24,1.97-5.63-1-11.76-6.63-13.76-5.94-2.08-12.18-3.11-18.7-3.11-15.88,0-33.45,6.15-52.46,18.4-3.96,2.55-7.88,5.23-11.81,7.92-13.94,9.53-27.1,18.54-41.91,21.66-4.13.87-8.3,1.27-12.53,1.27-11.53,0-23.45-2.97-35.96-7.38,27.85-19.49,57.16-36.63,87.75-51.26,9.45-4.52,19.26-8.91,28.75-13.16,29.69-13.29,60.4-27.03,87.38-47.77,15.88-12.21,29.88-26.39,42.92-41.32,11.42,4.18,23.48,6.19,35.54,6.19,18.75,0,37.5-4.86,53.9-13.98,6.65.7,13.21,2.04,19.6,3.99.03.01.05.03.08.05.93.45,1.93.72,2.95.9,7.85,2.65,15.4,6.21,22.42,10.64,1.85,1.16,3.91,1.72,5.94,1.72,3.71,0,7.33-1.84,9.45-5.21,3.29-5.21,1.72-12.1-3.49-15.39-3.11-1.96-6.33-3.73-9.59-5.4,9.28-8.6,16.67-19.24,21.62-30.92,9.89-4.31,20.57-6.55,31.35-6.55,1.82,0,3.64.06,5.46.19.26.02.53.03.79.03,4.15,0,7.99-2.31,9.91-6.04,3.95-7.65,7.34-15,10.31-22.15,16.49-.57,33.24-1.92,49.7-6.91l36.65,22.01c.29.18.59.34.9.49,1.55.75,3.2,1.11,4.83,1.11,3.79,0,7.48-1.93,9.58-5.42,3.17-5.28,1.46-12.14-3.82-15.31l-23.34-14.02c13.87-8.74,24.38-20.53,30.01-34.13,2.36-5.7-.43-12.17-6.04-14.58-1.4-.58-2.84-.85-4.26-.85-4.38,0-8.53,2.59-10.31,6.89-5.13,12.39-16.55,22.81-31.86,29.32-1.48-.68-3.05-1-4.61-1-3.77,0-7.44,1.91-9.52,5.38-.05.09-.08.19-.13.28-9.6,2.34-19.63,3.44-29.74,4.03,4.48-15.55,6.53-30.19,6.17-44.49-.15-6.06-5.12-10.88-11.15-10.88-.09,0-.19,0-.28,0-6.16.16-11.03,5.28-10.88,11.43.36,14.17-2.15,28.98-7.62,45.18-4.71,1.4-8.11,5.77-7.99,10.91.05,2.02.67,3.88,1.65,5.49-1.52,3.5-3.15,7.06-4.93,10.7-8.19.04-16.32,1.11-24.22,3.11.46-4.8.56-9.64.16-14.47-.45-5.47-1.35-11.07-2.22-16.49-2.87-17.94-4.2-30.2,3.21-36.91,4.57-4.13,4.92-11.19.78-15.76-2.2-2.43-5.23-3.67-8.27-3.67-2.67,0-5.35.95-7.48,2.89-16.94,15.33-13.24,38.43-10.27,56.98.84,5.23,1.63,10.18,2.01,14.8.68,8.26-.43,16.58-2.99,24.44-.8,1.31-1.33,2.75-1.54,4.26-4.84,12.04-13.17,22.68-23.89,29.95,1.88-2,3.7-4.06,5.41-6.23,3.83-4.83,3.02-11.85-1.81-15.67-2.05-1.62-4.5-2.4-6.93-2.4-3.29,0-6.55,1.44-8.75,4.22-15.75,19.87-41.62,31.05-67.12,31.05-6.68,0-13.33-.77-19.77-2.35,5.93-7.35,11.71-14.76,17.44-22.11,8.01-10.27,16.06-20.6,24.08-31.03,1.69-.03,3.39-.44,4.99-1.29,7.02-3.72,14.99-5.64,22.94-5.64,4,0,8,.49,11.88,1.47.92.23,1.85.35,2.76.35,4.98,0,9.52-3.36,10.8-8.41,1.52-5.97-2.11-12.05-8.06-13.56-5.57-1.42-11.32-2.09-17.07-2.09-2.13,0-4.27.09-6.39.27,17.71-23.88,34.82-48.42,50.42-73.97,1.71-.17,3.42-.68,4.96-1.69,1.57-1.02,3.5-1.44,5.88-1.44,3.26,0,7.36.78,12.56,1.87,5.66,1.19,11.52,2.42,17.74,2.42.12,0,.24,0,.36,0,16.62-.14,32.54-10.33,39.6-25.38,2.6-5.54.26-12.13-5.24-14.79-.04-.02-.08-.04-.11-.05-1.53-.72-3.15-1.06-4.74-1.06-4.19,0-8.21,2.37-10.11,6.41-3.44,7.32-11.49,12.49-19.58,12.55-.07,0-.14,0-.21,0-3.9,0-8.39-.94-13.14-1.94-4.12-.86-8.63-1.78-13.31-2.15,5.77-10.45,11.29-21.06,16.42-31.91,5.55-11.73,10.87-23.99,16.02-35.86.46-1.06.92-2.12,1.38-3.17.55-.36,1.07-.77,1.55-1.24,2.53-.9,5.08-1.74,7.66-2.53.89.69,1.86,1.3,2.97,1.71,15.32,5.62,29.61,13.55,42.5,23.58.64.5,1.31.92,2.01,1.25,1.53.74,3.19,1.1,4.84,1.1,3.32,0,6.61-1.48,8.81-4.3,3.79-4.86,2.92-11.87-1.94-15.66-7.16-5.59-14.72-10.59-22.61-15.01,5.81-.57,11.64-.9,17.46-.91,6.16-.01,11.15-5.02,11.14-11.18-.01-6.16-5.01-11.13-11.18-11.14-17.04.03-34.19,2.28-50.81,6.5,16.81-36.25,36.46-70.3,67.61-90.87,4.98-3.29,6.35-9.99,3.06-14.96-2.08-3.15-5.52-4.85-9.02-4.85-2.04,0-4.11.58-5.94,1.79-21.2,13.99-37.33,32.75-50.76,53.81-1.18-1.25-2.64-2.27-4.37-2.85-23.46-7.86-44.56-21.81-61.01-40.32-2.13-2.4-5.1-3.62-8.08-3.62-2.55,0-5.11.9-7.17,2.73-4.46,3.96-4.86,10.79-.9,15.25,14.37,16.17,31.82,29.31,51.21,38.68,6.17,2.98,12.55,5.58,19.08,7.78.25.08.51.11.76.17-6.36,11.66-12.14,23.76-17.65,36.01-12.23-13.53-22.07-29.24-28.79-46.2-1.68-4.24-5.75-6.82-10.05-6.82-1.33,0-2.67.25-3.98.76-5.54,2.2-8.26,8.48-6.06,14.02,7.95,20.04,19.73,38.53,34.38,54.34-2.5,3.15-3.25,7.53-1.49,11.46.59,1.32,1.41,2.45,2.38,3.4-3.21,7.38-6.49,14.73-9.83,21.98l-6.8-25.01c-1.35-4.97-5.86-8.23-10.76-8.23-.97,0-1.95.13-2.93.39-5.95,1.62-9.46,7.75-7.84,13.69l13.1,48.16c.09.34.26.64.38.96-31.28,58.37-72.63,111.44-112.8,162.95-21.77,27.92-44.29,56.78-72.05,78.12-24.97,19.19-53.17,31.82-83.04,45.19-4.75,2.12-9.57,4.28-14.41,6.49,7.62-11.67,13.54-24.46,17.55-37.82,13.02-3.92,26.47-6.34,40.07-7.03,5.96-.31,10.54-5.38,10.24-11.34-.3-5.77-5.08-10.25-10.8-10.25-.18,0-.36,0-.55.01-4.42.23-8.82.62-13.21,1.16,14.01-11.64,25.89-25.94,34.81-41.84,15.03-8.42,25.17-22.08,35.02-35.35,6.71-9.04,13.09-17.59,20.7-24.19.39.04.78.06,1.18.06.8,0,1.61-.09,2.42-.28,4.13-.96,7.12-4.19,8.03-8.06,3.7-2.22,7.6-4.31,11.62-6.47,8.4-4.51,17.08-9.17,24.99-15.57,9.1-7.37,16.26-16.31,23.17-24.94,8.27-10.32,16.08-20.07,26.24-25.94,2.36-1.36,4.91-2.65,7.49-3.96,11.83-6,28.03-14.21,29.06-31.97.35-5.96-4.21-11.06-10.16-11.41-.21-.01-.42-.02-.63-.02-5.68,0-10.44,4.43-10.78,10.17-.29,4.98-7.34,8.93-17.26,13.97-2.83,1.44-5.75,2.92-8.53,4.52-13.68,7.9-23.14,19.72-32.29,31.15-6.49,8.1-12.62,15.76-19.91,21.66-6.32,5.12-13.74,9.1-21.61,13.32-1.44.77-2.89,1.56-4.34,2.35-1.46-14.61-.74-29.45,2.1-43.87,7.59-6.81,19.5-9.71,32.14-12.71,18.68-4.45,39.86-9.49,49.06-29.99,2.48-5.53.09-11.99-5.32-14.61-.1-.05-.2-.09-.29-.14-1.48-.66-3.03-.98-4.56-.98-4.26,0-8.33,2.45-10.19,6.59-4.38,9.77-15.71,13.1-33.86,17.42-5.79,1.38-11.88,2.84-17.86,4.79,2.06-4.83,4.34-9.56,6.92-14.13,2.93-5.2,1.08-11.79-4.11-14.71-1.68-.93-3.5-1.38-5.29-1.38-3.77,0-7.43,1.97-9.42,5.49-18.78,33.36-25.62,73.28-19.37,111.03-.36.29-.74.53-1.09.82-5.71,4.7-10.64,10.06-15.22,15.64-2.07-9.09-5.59-17.84-8.93-26.07-5-12.33-9.72-23.98-9.6-35.23.09-8.55,3.11-17.07,7.08-25.24,16.7-13.97,31.66-30.32,44.18-48.28.22.01.44.02.66.02.77,0,1.55-.07,2.33-.25,17.65-4.02,33.93-13.64,46.3-26.86,20.29-3.58,39.34-15.05,51.56-31.6,1.33-1.81,2.6-3.68,3.86-5.55,2.52-3.74,4.89-7.27,7.63-9.65,2.09-1.81,4.58-2.52,6-2.52.42,0,.74.06.94.18,1.79,1.11,3.78,1.64,5.74,1.64,3.59,0,7.1-1.78,9.15-5.04,3.18-5.05,1.65-11.72-3.4-14.89-4-2.51-8.29-3.57-12.52-3.57-7.48,0-14.79,3.32-20.06,7.89-1.64,1.42-3.07,2.95-4.42,4.51-1.76-19.44-5.9-38.56-12.49-57.13-1.58-4.42-5.74-7.19-10.19-7.19-1.2,0-2.42.2-3.61.62-5.62,2-8.56,8.18-6.56,13.8,8.44,23.75,12.59,49.51,12.17,74.75-3.17,2.53-6.56,4.8-10.17,6.66-.9-2.41-2.59-4.53-5.02-5.87-1.69-.93-3.53-1.37-5.35-1.37-3.93,0-7.78,2.07-9.81,5.76-1.58,2.86-3.44,5.55-5.42,8.15-.11,0-.23.03-.34.03-5.96.12-10.71,5.04-10.59,11.01,0,.1.04.19.05.28-3.4,2.82-7.06,5.31-10.93,7.44-.19-3.76-2.23-7.33-5.78-9.26-1.73-.93-3.57-1.38-5.38-1.38-3.96,0-7.73,2.13-9.76,5.86-9.81,18.07-22.36,34.88-36.84,49.68-.79-.17-1.58-.26-2.37-.26-3.7,0-7.29,1.85-9.29,5.27-2.17,3.71-4.48,7.66-6.72,11.82-.51.41-.99.86-1.51,1.27-3.17,2.54-4.55,6.44-4.05,10.19-2.8,6.55-5.03,13.52-6.05,20.86-1.41-.71-2.96-1.07-4.51-1.07-2.27,0-4.55.77-6.43,2.35l-76.49,64.5c.24-33.62,2.6-65.35,19.58-88.24.08,0,.16,0,.24,0,8.94,0,17.92,3.63,24.06,10.11,1.96,2.06,4.6,3.11,7.25,3.11,2.46,0,4.93-.9,6.86-2.73,4-3.79,4.17-10.11.37-14.11-5.84-6.16-13.27-10.73-21.33-13.46,5.4-4.1,11.23-7.94,17.24-11.89,7.03-4.62,14.17-9.33,20.88-14.66,5.82,2.29,11.96,3.78,18.14,4.29.3.02.6.04.89.04,5.57,0,10.29-4.28,10.75-9.92.48-5.95-3.94-11.16-9.89-11.64-.81-.07-1.61-.17-2.42-.29.59-.77,1.21-1.5,1.77-2.3,5.95-8.47,9.91-17.77,13.61-26.88,3.19.36,6.39.54,9.57.54,26.57,0,52.67-12.31,69.19-33.43,3.8-4.85,2.94-11.86-1.92-15.66-2.03-1.59-4.45-2.36-6.86-2.36-3.32,0-6.6,1.47-8.8,4.28-12.06,15.42-31.8,24.69-51.4,24.84,2.31-4.11,4.91-7.89,8.09-11.14,3.85-3.94,3.78-10.26-.17-14.11-1.95-1.9-4.46-2.84-6.97-2.84-2.59,0-5.18,1.01-7.14,3.01-2.47,2.53-4.64,5.22-6.62,8,.14-5.26.12-10.52-.06-15.79,18.36-5.26,35.21-15.52,48.76-29.13l48.88,31.82c.39.26.79.48,1.21.68,1.49.72,3.09,1.07,4.67,1.07,3.53,0,6.99-1.73,9.06-4.91,3.26-5,1.84-11.69-3.16-14.95l-46.85-30.5c4.03-5.91,7.54-12.16,10.37-18.7.62.1,1.26.15,1.89.15,1.4,0,2.81-.26,4.18-.83,11.72-4.94,22.43-12.52,30.97-21.93,4.14-4.56,3.8-11.62-.77-15.76-2.14-1.94-4.83-2.89-7.5-2.89-3.04,0-6.06,1.23-8.27,3.66-3.91,4.31-8.47,8.02-13.39,11.16-.52-4.82-4.11-8.94-9.12-9.81-.65-.11-1.3-.17-1.93-.17-5.32,0-10.03,3.82-10.98,9.24-2.29,13.08-7.85,25.43-15.7,36.16-2.86.49-5.53,2.11-7.24,4.73-1.17,1.8-1.71,3.81-1.73,5.81-9.87,10-21.94,17.82-35.15,22.35-.92-7.42-2.15-14.79-3.72-22.09l30.7-53.11c3.08-5.34,1.26-12.16-4.08-15.24-1.76-1-3.68-1.47-5.57-1.47-3.86,0-7.6,1.97-9.67,5.55l-23.46,40.59c-.56-.09-1.13-.14-1.71-.14-.87,0-1.76.11-2.64.37-5.3,1.52-8.36,7.05-6.84,12.34.6,2.09,1.08,4.2,1.61,6.31-.17,2.4.44,4.77,1.72,6.79,2.02,8.97,3.48,18.08,4.43,27.24-2.04,2.43-3.07,5.68-2.49,9.05.44,2.56,1.76,4.72,3.55,6.34.65,16.58-.37,33.23-3.22,49.54-.6,3.43.64,6.74,2.99,8.97-1.98,4.2-4.13,8.18-6.68,11.81-1.44,2.05-3.05,3.97-4.73,5.83-.19-.14-.4-.27-.59-.42-1.96-1.52-4.28-2.25-6.59-2.25-3.23,0-6.43,1.44-8.56,4.19-2.9,3.75-2.9,8.79-.43,12.53-4.42,3.19-9.08,6.26-13.85,9.39-11.81,7.76-23.99,15.81-33.95,26.74-4.5,1.1-7.6,5.1-7.62,9.61-2.18,3.15-4.2,6.37-5.97,9.7,4.59-11,8.8-21.83,12.77-32.13,2.22-5.75-.6-12.15-6.39-14.43-1.32-.51-2.68-.75-4.01-.75-4.48,0-8.7,2.72-10.41,7.14-.95,2.46-1.92,4.97-2.9,7.49l3.19-20.48c1.39-8.93,2.97-19.06,1.74-29.44-1.2-10.25-5.03-19.67-8.41-27.99l-5.18-12.75c.92-1.39,1.58-2.97,1.8-4.74l9.28-73.33c.77-6.11-3.54-11.69-9.67-12.47-.47-.06-.95-.09-1.41-.09-5.54,0-10.34,4.12-11.06,9.76l-5.18,40.93-1.06-2.6c-1.76-4.34-5.93-6.96-10.33-6.96-1.4,0-2.83.27-4.2.83-5.71,2.32-8.45,8.83-6.13,14.54l22.48,55.29c3.12,7.68,6.07,14.94,6.92,22.2.87,7.34-.4,15.5-1.63,23.4l-13.73,88.26c-.3,1.94-.07,3.84.57,5.56-7.12,12.18-15.19,23.75-24.51,34.12-1.15-1.46-2.63-2.68-4.46-3.46-1.38-.57-2.82-.84-4.22-.84-4.28,0-8.35,2.5-10.19,6.63l9.13-123.69c.45-6.14-4.16-11.49-10.31-11.95-.28-.02-.56-.03-.83-.03-5.79,0-10.68,4.47-11.12,10.34l-14.13,191.45-19.43,47.2c-.16.38-.32.77-.47,1.16-12.36-13.44-23.94-27.6-32.11-43.51-2.48-4.82-4.53-9.68-6.18-14.52,18.55-41.3,37.94-82.88,57.7-123.67,2.69-5.55.37-12.22-5.17-14.91,0,0,0,0-.01,0-1.56-.76-3.22-1.11-4.85-1.11-4.14,0-8.12,2.32-10.05,6.29-12.67,26.15-25.17,52.63-37.42,79.15,2-5.5-.54-11.62-6.03-14.03-1.44-.62-2.94-.91-4.41-.91-4.32,0-8.43,2.52-10.25,6.74-6.03,13.98-7.98,29.82-6.03,46.2-8.65-5.39-16.74-11.61-24.17-18.56.6-.93,1.11-1.93,1.42-3.06,9.06-33.04,28.54-61.42,49.16-91.48,16.51-24.06,33.57-48.93,45.02-76.63l1.22-2.99c2.42-6,4.72-11.66,8.21-15.59,2.26-2.54,5.52-4.21,7.9-4.21.54,0,1.03.09,1.46.27,1.42.61,2.9.89,4.36.89,4.34,0,8.47-2.55,10.28-6.79,2.41-5.66-.17-12.16-5.9-14.64-3.4-1.45-6.84-2.08-10.22-2.08-3.75,0-7.41.79-10.82,2.13,5.94-47.21-3.12-95.9-26.35-137.78-2.04-3.68-5.84-5.75-9.77-5.75h0ZM450.31,493.36c.47-1.7.98-3.4,1.51-5.09,1.81-.47,3.53-1.36,4.96-2.76,4.04-3.91,4.45-10.1,1.25-14.53,1.42-3.59,2.88-7.13,4.3-10.59l10.57-25.68c4.88-.89,8.75-4.94,9.13-10.12l1.08-14.69,14.37-34.9c33.53-24.2,54.88-59.92,70.94-95.52-8.38,23.81-9.41,51.02-9.43,79.07,0,3.04,1.37,5.74,3.51,7.57-3.97,2.88-7.91,5.28-11.68,6.66,1.78-6.57,3.28-13.26,4.32-20.14.89-5.9-3.16-11.41-9.07-12.29-.55-.08-1.09-.12-1.63-.12-5.25,0-9.86,3.84-10.66,9.19-8.26,54.64-46.03,100.12-83.46,143.94h0ZM534.47,537.24c4.44,0,8.61-2.76,10.18-7.19,2-5.62-.97-11.83-6.56-13.8-3.24-1.15-6.59-1.93-9.99-2.4,8.58-25.4,25.25-48.24,42.71-72.13,20.43-27.96,41.56-56.86,49.88-91.46.52-2.17.35-4.34-.37-6.29l46.2-38.95c1.67,11.72,6.1,22.76,10.45,33.49,5.09,12.56,9.61,23.76,9.12,34.18-.73-.39-1.51-.73-2.34-.95-.92-.24-1.85-.36-2.76-.36-4.79,0-9.16,3.2-10.44,8.05-2.04,7.75-4.92,15.28-8.48,22.49-3.89,2.03-6.08,6.13-5.75,10.36-8.57,13.89-19.83,26.14-32.97,35.74.1-13.44-1.79-26.9-5.95-39.85-1.47-4.59-5.72-7.51-10.28-7.51-1.09,0-2.21.17-3.3.52-5.68,1.83-8.81,7.91-6.99,13.59,16.5,51.42-10.61,114.75-59.21,138.3-3.22,1.56-5.28,4.51-5.88,7.78-11.67,7.01-23.12,14.39-34.35,22.15,2.27-14.92,3.9-29.95,4.94-45.02.55.14,1.12.18,1.69.23,1.02,1.35,2.35,2.46,3.91,3.21.95.46,1.98.78,3.07.95.55.08,1.1.12,1.64.12,4.67,0,8.8-3.05,10.23-7.48,2.72.17,5.42.7,7.99,1.62,1.2.42,2.42.63,3.62.63h0ZM591.87,367.96c-9.36,21.13-23.62,40.65-38.5,61.01-19.6,26.82-39.78,54.43-48.47,86.95-.52.17-1.02.4-1.54.59.22-7.35.31-14.7.23-22.05-.06-5.92-4.88-10.68-10.8-10.68-.04,0-.08,0-.12,0-5.96.06-10.74,4.96-10.68,10.92.37,32.87-2.38,65.96-8.17,98.33-.19,1.04-.19,2.07-.08,3.07-1.28,1.07-2.36,2.42-3.06,4.07-.38.91-.58,1.84-.71,2.78-2.59,1.99-5.16,4.01-7.72,6.05-.07-7.12-2.38-14.39-5.72-19.66-5.88-9.28-6.22-13.29-6.18-14.32,4.55-3.65,5.39-10.27,1.84-14.95-2.12-2.8-5.36-4.27-8.62-4.27-2.27,0-4.56.71-6.51,2.19-8.01,6.07-14.29,18.44,1.22,42.92,1.88,2.97,2.52,7.14,2.34,9.42-4.87,1.14-8.45,5.57-8.33,10.77.09,3.73,2.11,6.89,5.03,8.76-9.27,8.15-18.36,16.57-27.23,25.29-4.89,4.81-9.77,9.73-14.69,14.68-5.28,5.32-10.6,10.67-15.97,15.93-.84-9.04-.79-19.54,1.25-31.75,1.05-1.94,1.51-4.18,1.23-6.45,5.83-27.07,21.48-62.04,57.44-107.47,4.24-1.35,7.24-5.1,7.68-9.48,1.29-1.55,2.54-3.09,3.87-4.67,4.1-4.85,8.25-9.71,12.42-14.59,31.11-36.38,62.97-73.73,80.37-117.37.22,0,.44,0,.66,0,16.59,0,31.11-12.22,40.82-20.4l6.67-5.62h0ZM1111.88,468.22c-7.35,0-14.69-1.19-21.58-3.58,4.41-6.39,8.65-12.93,12.75-19.57.49.24.98.49,1.47.73,12.77,6.17,26.44,10.63,40.44,13.46-9.81,5.97-21.45,8.96-33.08,8.96h0ZM892.55,584.68c3.54,0,6.71-1.72,8.68-4.4l10.38-3.63c6.48,1.82,12.96,5.19,19.72,8.73,7.48,3.91,15.19,7.93,23.82,10.42.05.09.08.18.14.27,4.75,7.21,6.19,16.85,3.76,25.14-1.56,5.31,1.02,10.85,5.84,13.18.55.27,1.13.49,1.73.67,1.05.31,2.1.45,3.14.45,4.83,0,9.28-3.16,10.7-8.02,2.79-9.53,2.68-19.76-.02-29.27,10.84-.71,21.54-3.21,32.02-5.68,11.36-2.68,21.81-5.15,31.27-5.15,6.62,0,12.75,1.21,18.36,4.4.12.07.26.1.38.17-8.05,21.33-13,44.02-14.4,66.62-2.79.77-5.58,1.54-8.37,2.23-23.85,5.94-47.87,8.89-71.35,8.89-21.36,0-42.27-2.43-62.25-7.27,14.77-12.88,28.23-27.25,40.09-42.86,3.73-4.91,2.77-11.91-2.14-15.63-2.01-1.54-4.38-2.28-6.73-2.28-3.37,0-6.71,1.53-8.9,4.42-12.99,17.1-28.05,32.61-44.76,46.1-.99.8-1.76,1.76-2.4,2.78-5.52-1.99-10.98-4.12-16.29-6.51-8.2-3.68-16.31-7.82-24.91-12.21-13.98-7.15-28.18-14.38-42.8-19.55l34.28-12c1.05,1.82,2.61,3.35,4.6,4.31.36.17.73.33,1.11.46,1.19.42,2.41.62,3.61.62,4.45,0,8.61-2.77,10.18-7.2.66-1.87,1.26-3.77,1.84-5.66l36.89-12.91c.77.2,1.56.34,2.39.37.14,0,.27,0,.41,0h0ZM802.67,735.23c3.42,0,6.8-1.62,8.9-4.65,3.4-4.9,2.18-11.63-2.73-15.03-8.15-5.65-16.52-10.85-25.07-15.7-1.23-1.09-2.68-1.93-4.3-2.37-30.69-16.9-63.44-29.41-95.88-41.02l72.92-25.52c.63-.02,1.26-.03,1.89-.03,23.72,0,47.19,11.96,71.84,24.56,3.07,1.57,6.21,3.15,9.34,4.72-18.05,21.17-23.46,52.37-12.51,78.24,1.06,2.51,2.97,4.41,5.25,5.51.07.03.14.05.21.08l-70.7,12.59c-2.35.42-4.36,1.58-5.89,3.18-17.67-6.96-35.81-11.64-54.07-13.75-15.85-1.84-31.75-1.84-47.13-1.84-9.52,0-19.36,0-28.89-.45-40.64-1.92-81.02-12.62-117.8-30.57,22.42-4.3,44.21-11.05,65.56-18.32,5.64,3.62,11.4,6.83,17.23,9.65,25.27,12.21,51.53,17.31,72.07,19.31,10.11.98,20.22,1.4,30.29,1.4,27.22,0,54.23-3.04,80.63-6.14,7.76,4.43,15.35,9.14,22.7,14.23,1.87,1.3,4.01,1.92,6.13,1.92h0ZM692.99,703.61c-9.37,0-18.71-.38-27.98-1.28-18.35-1.78-41.74-6.31-64.04-16.95l53.05-18.57c1.02,1.42,2.37,2.63,4.03,3.43.36.17.73.33,1.11.46,26.44,9.35,53.38,18.88,79.24,30.49-15.11,1.42-30.29,2.42-45.4,2.42h0ZM844.63,741.87c3.03-3.02,4.11-7.67,2.34-11.86-8.46-20.01-2.72-45.47,13.27-60.14,18.16,7.75,37.41,13.41,57.37,16.95.29.83.65,1.65,1.15,2.42,10.5,15.96,21.87,31.5,33.86,46.45-7.61-2.23-15.58-3.86-23.8-4.47-2.86-.21-5.7-.31-8.52-.31-14.11,0-27.79,2.43-41.09,4.8l-34.57,6.16h0ZM1027.08,702.91c-1.71-5.41-3.04-10.93-4.14-16.51,4.49-.79,8.97-1.7,13.45-2.69-.69.6-1.34,1.27-1.88,2.06-1.38,2-1.99,4.29-1.94,6.54-2.04,3.43-3.88,6.96-5.49,10.6h0ZM329.63,690.47c9.66,0,19.32-1.95,28.15-5.83.31,4.85.85,9.73,1.69,14.63.24,1.39.8,2.63,1.49,3.77-9.34,8.23-18.95,15.77-28.95,22.03-.64-11.04-6.29-22.37-12.23-30.13-1.54-2.01-3.11-4-4.7-5.97,4.78,1,9.66,1.5,14.55,1.5h0ZM968.05,691.26c11.08,0,22.25-.61,33.46-1.82,2.78,14.67,7.36,28.93,13.77,42.42.82,1.73,2.04,3.14,3.5,4.17-.22,2.99-.31,5.99-.24,8.99.21,9.83,1.85,19.25,4.14,28.55-6.75-4.94-13.62-9.74-20.72-14.25-4.63-2.94-9.93-6.16-15.75-9.35,1.04-3.43.37-7.29-2.16-10.2-13.61-15.68-26.45-32.25-38.37-49.36,7.39.56,14.85.84,22.36.84h0ZM851.5,811.8c-5.16,0-10.31-.52-15.36-1.59-15.7-14.1-32.46-26.19-49.92-35.99l96.78-17.23c12.36-2.2,25.08-4.46,37.43-4.46,2.28,0,4.54.08,6.78.25,18.99,1.42,38.48,9.08,63.19,24.77,28.52,18.13,54.11,39.98,76.44,65.07-.13,0-.25-.04-.38-.04-.06,0-.13,0-.19,0-5.88,0-10.7,4.71-10.8,10.61-.17,9.58-.98,19.14-2.34,28.62-.56.02-1.12.03-1.67.03-16.69,0-33.55-8.37-48.49-15.84l-68.53-34.25c-1.51-1.86-3.61-3.25-6.16-3.77-.59-.12-1.17-.16-1.75-.18l-20.74-10.36c6.25-3.99,12.07-8.64,17.24-13.99,4.15-4.29,4.02-11.13-.26-15.27-2.09-2.03-4.8-3.03-7.5-3.03-2.83,0-5.65,1.1-7.77,3.3-14.45,14.96-35.23,23.37-55.98,23.37h0ZM644.47,793.43c-10.46-7.98-19.84-17.43-27.72-27.95,2.68.2,5.37.44,8.06.57,9.56.45,19.16.47,28.48.47.48,0,.97,0,1.45,0h.83c15.12,0,29.43.03,43.74,1.68,29.5,3.41,58.72,14.28,85.93,31.32-5.5,14.87-8.83,30.59-9.93,46.46l-57.97-19.08c-18.56-6.11-37.67-12.44-54.72-21.75,9.18-5.49,19.91-8.19,30.66-8.19,13.94,0,27.92,4.55,38.57,13.48,2.02,1.69,4.48,2.52,6.94,2.52,3.08,0,6.14-1.31,8.28-3.86,3.84-4.57,3.24-11.38-1.33-15.22-14.73-12.36-33.6-18.65-52.47-18.65-15.72,0-31.43,4.36-44.77,13.23-1.89,1.26-3.25,3-4.03,4.96h0ZM955.54,994.76c-9.71-16.51-18.46-34.13-27.42-52.19-9.51-19.16-19.35-38.97-30.58-57.58-11.43-18.95-24.39-36.33-38.52-51.95,7.39-.58,14.73-1.95,21.83-4.11.44.31.88.62,1.38.87l31.86,15.92c-2.39,23.36,3.85,47.77,17.42,66.9,1.09,1.54,2.51,2.71,4.1,3.47,1.47.71,3.09,1.08,4.72,1.08,2.16,0,4.35-.65,6.24-1.99,4.87-3.45,6.01-10.19,2.56-15.06-8.98-12.65-13.84-28.28-13.96-43.86l58.14,29.05c1.21.6,2.51,1.24,3.76,1.86-11.52,17.26-20.92,35.76-28.06,55.09-5.16-1.81-9.94-4.82-13.67-8.8-2.13-2.26-5.01-3.41-7.88-3.41-2.65,0-5.31.97-7.39,2.93-4.35,4.09-4.56,10.92-.48,15.27,4.67,4.97,10.31,9.07,16.47,12.05,2.04.99,4.15,1.83,6.3,2.56-2.91,10.46-5.2,21.11-6.81,31.9h0Z"/>
</svg>